<svg xmlns="http://www.w3.org/2000/svg" width="26.509" height="26.509" viewBox="0 0 26.509 26.509"><defs><style>.a{fill:rgba(117,148,251,0.5);}</style></defs><path class="a" d="M197.433,177.984a3.383,3.383,0,1,1-3.383-3.383A3.383,3.383,0,0,1,197.433,177.984Zm0,0" transform="translate(-180.796 -165.562)"/><path class="a" d="M25.55.958A3.252,3.252,0,0,0,23.237,0H3.272A3.272,3.272,0,0,0,0,3.272V6.6A3.271,3.271,0,0,0,3.272,9.872h.166V4.159a.777.777,0,0,1,.777-.777h18.08a.777.777,0,0,1,.777.777V9.872h.166A3.272,3.272,0,0,0,26.509,6.6V3.272A3.253,3.253,0,0,0,25.55.958Zm0,0"/><path class="a" d="M96.4,114.465a2.441,2.441,0,0,0,2.44,2.44h11.646a2.441,2.441,0,0,0,2.44-2.44V95.332H96.4Zm8.263-16.582a4.936,4.936,0,1,1-4.936,4.936A4.941,4.941,0,0,1,104.662,97.883Zm-4.159,13.31h8.318a.777.777,0,0,1,0,1.553H100.5a.777.777,0,1,1,0-1.553Zm0,0" transform="translate(-91.407 -90.396)"/></svg>