<svg xmlns="http://www.w3.org/2000/svg" width="27.19" height="25.759" viewBox="0 0 27.19 25.759"><defs><style>.a{fill:#7594fb;}</style></defs><path class="a" d="M28.759,24.466V25.9A2.871,2.871,0,0,1,25.9,28.759H5.862A2.861,2.861,0,0,1,3,25.9V5.862A2.861,2.861,0,0,1,5.862,3H25.9a2.871,2.871,0,0,1,2.862,2.862V7.293H15.879a2.861,2.861,0,0,0-2.862,2.862V21.6a2.861,2.861,0,0,0,2.862,2.862ZM15.879,21.6H30.19V10.155H15.879ZM21.6,18.026a2.147,2.147,0,1,1,2.147-2.147A2.144,2.144,0,0,1,21.6,18.026Z" transform="translate(-3 -3)"/></svg>