<svg xmlns="http://www.w3.org/2000/svg" width="27.195" height="32.634" viewBox="0 0 27.195 32.634"><defs><style>.a{fill:rgba(117,148,251,0.5);}</style></defs><path class="a" d="M7.439,24.475a1.364,1.364,0,0,0,1.36,1.36h1.36v4.759a2.04,2.04,0,1,0,4.079,0V25.835h2.719v4.759a2.04,2.04,0,1,0,4.079,0V25.835H22.4a1.364,1.364,0,0,0,1.36-1.36v-13.6H7.439Zm-3.4-13.6A2.037,2.037,0,0,0,2,12.918v9.518a2.04,2.04,0,0,0,4.079,0V12.918A2.037,2.037,0,0,0,4.04,10.878Zm23.116,0a2.037,2.037,0,0,0-2.04,2.04v9.518a2.04,2.04,0,0,0,4.079,0V12.918A2.037,2.037,0,0,0,27.155,10.878ZM20.4,2.937l1.768-1.768a.673.673,0,0,0,0-.965A.673.673,0,0,0,21.2.2L19.187,2.216A7.94,7.94,0,0,0,15.6,1.36a8.055,8.055,0,0,0-3.617.857L9.954.2a.673.673,0,0,0-.965,0,.673.673,0,0,0,0,.965L10.77,2.951A8.136,8.136,0,0,0,7.439,9.518H23.756A8.111,8.111,0,0,0,20.4,2.937ZM12.878,6.8h-1.36V5.439h1.36Zm6.8,0h-1.36V5.439h1.36Z" transform="translate(-2)"/></svg>