<svg xmlns="http://www.w3.org/2000/svg" width="27.195" height="27.195" viewBox="0 0 27.195 27.195"><defs><style>.a{fill:rgba(117,148,251,0.5);}</style></defs><path class="a" d="M15.6,2a13.6,13.6,0,1,0,13.6,13.6A13.6,13.6,0,0,0,15.6,2Zm-1.36,24.38A10.862,10.862,0,0,1,4.719,15.6a11.038,11.038,0,0,1,.286-2.434l6.513,6.513v1.36a2.727,2.727,0,0,0,2.719,2.719Zm9.382-3.454a2.7,2.7,0,0,0-2.583-1.89h-1.36V16.957a1.364,1.364,0,0,0-1.36-1.36H10.158V12.878h2.719a1.364,1.364,0,0,0,1.36-1.36V8.8h2.719a2.727,2.727,0,0,0,2.719-2.719V5.522a10.854,10.854,0,0,1,3.943,17.4Z" transform="translate(-2 -2)"/></svg>