<svg xmlns="http://www.w3.org/2000/svg" xmlns:xlink="http://www.w3.org/1999/xlink" width="257" height="254" viewBox="0 0 257 254"><defs><style>.a,.b{fill:#fff;}.b{stroke:#e8e8e8;}.c{fill:#cbd7fc;}.d{fill:#f8f8f8;}.e{fill:#7594fb;}.f{stroke:none;}.g{fill:none;}.h{filter:url(#a);}</style><filter id="a" x="0" y="0" width="257" height="254" filterUnits="userSpaceOnUse"><feOffset dx="5" dy="15" input="SourceAlpha"/><feGaussianBlur stdDeviation="15" result="b"/><feFlood flood-color="#6587f8" flood-opacity="0.2"/><feComposite operator="in" in2="b"/><feComposite in="SourceGraphic"/></filter></defs><g transform="translate(-708 -1367)"><g class="h" transform="matrix(1, 0, 0, 1, 708, 1367)"><rect class="a" width="167" height="164" transform="translate(40 30)"/></g><g transform="translate(765.983 1419.07)"><g class="b" transform="translate(0.017 -0.07)"><ellipse class="f" cx="16.5" cy="17" rx="16.5" ry="17"/><ellipse class="g" cx="16.5" cy="17" rx="16" ry="16.5"/></g><rect class="c" width="69" height="6" rx="3" transform="translate(40.017 4.93)"/><rect class="d" width="91" height="4" rx="2" transform="translate(40.017 16.93)"/><rect class="d" width="87" height="4" rx="2" transform="translate(40.017 24.93)"/></g><g transform="translate(765.983 1462.392)"><g class="b" transform="translate(0.017 -0.392)"><ellipse class="f" cx="16.5" cy="17" rx="16.5" ry="17"/><ellipse class="g" cx="16.5" cy="17" rx="16" ry="16.5"/></g><rect class="c" width="69" height="7" rx="3.5" transform="translate(40.017 4.608)"/><rect class="d" width="91" height="4" rx="2" transform="translate(40.017 17.608)"/><rect class="d" width="87" height="4" rx="2" transform="translate(40.017 25.608)"/></g><g transform="translate(765.983 1506.532)"><g class="b" transform="translate(0.017 0.468)"><circle class="f" cx="16.5" cy="16.5" r="16.5"/><circle class="g" cx="16.5" cy="16.5" r="16"/></g><rect class="c" width="69" height="6" rx="3" transform="translate(40.017 4.468)"/><rect class="d" width="91" height="4" rx="2" transform="translate(40.017 17.468)"/><rect class="d" width="87" height="4" rx="2" transform="translate(40.017 25.468)"/></g><g transform="translate(776.054 1376.493)"><g transform="translate(0 53.55)"><path class="e" d="M4.64,62.333l-3.48-3.48L0,60.013l4.64,4.64,9.943-9.943-1.16-1.16Z" transform="translate(0 -53.55)"/></g></g><g transform="translate(776.053 1464.493)"><g transform="translate(0 53.55)"><path class="e" d="M4.641,62.334l-3.48-3.48L0,60.014l4.641,4.641,9.944-9.944-1.16-1.16Z" transform="translate(0 -53.55)"/></g></g></g></svg>