<svg xmlns="http://www.w3.org/2000/svg" width="619.169" height="619.169" viewBox="0 0 619.169 619.169"><defs><style>.a{opacity:0.09;}.b{fill:#866fff;}</style></defs><g class="a" transform="translate(-253.309 -316.323)"><path class="b" d="M318.763,381.778A309.986,309.986,0,0,0,257.491,468.7l148.2-148.2A310.084,310.084,0,0,0,318.763,381.778Z" transform="translate(24.474 24.48)"/><path class="b" d="M506.546,320.306,257.3,569.561q-2.7,14.719-3.974,29.622L536.167,316.339Q521.3,317.614,506.546,320.306Z" transform="translate(0.088 0.094)"/><path class="b" d="M588.256,316.323,253.309,651.27q.935,11.5,2.72,22.927L611.184,319.05Q599.765,317.262,588.256,316.323Z" transform="translate(0 0)"/><path class="b" d="M642.839,318.131,255.116,705.847q2.939,9.662,6.5,19.166L662,324.62Q652.511,321.043,642.839,318.131Z" transform="translate(10.575 10.581)"/><path class="b" d="M678.415,321.433l-420,420q4.389,8.274,9.319,16.336l427.013-427.02Q686.693,325.839,678.415,321.433Z" transform="translate(29.905 29.905)"/><path class="b" d="M699.166,325.9,262.889,762.181q5.622,7.1,11.7,13.951L713.117,337.607Q706.272,331.513,699.166,325.9Z" transform="translate(56.064 56.07)"/><path class="b" d="M706.9,331.4,268.384,769.923q6.835,6.085,13.951,11.7l436.27-436.277Q712.994,338.247,706.9,331.4Z" transform="translate(88.221 88.222)"/><path class="b" d="M701.9,337.9,274.882,764.909q8.048,4.923,16.329,9.319l420-420Q706.826,345.947,701.9,337.9Z" transform="translate(126.249 126.249)"/><path class="b" d="M682.869,345.5,282.483,745.89q9.487,3.566,19.159,6.489L689.358,364.662Q686.428,355,682.869,345.5Z" transform="translate(170.731 170.731)"/><path class="b" d="M646.59,354.456,291.442,709.611q11.419,1.788,22.927,2.72L649.317,377.39Q648.382,365.889,646.59,354.456Z" transform="translate(223.161 223.161)"/><path class="b" d="M585.219,365.391,302.376,648.235q14.883-1.274,29.629-3.974L581.252,395.013Q583.945,380.284,585.219,365.391Z" transform="translate(287.148 287.154)"/><path class="b" d="M317.86,529.073a311.775,311.775,0,0,0,148.192-148.2Z" transform="translate(377.763 377.763)"/></g></svg>