<svg xmlns="http://www.w3.org/2000/svg" xmlns:xlink="http://www.w3.org/1999/xlink" width="283" height="280" viewBox="0 0 283 280"><defs><style>.a,.b{fill:#fff;}.b{stroke:#e8e8e8;}.c{fill:#cbd7fc;}.d{fill:#f8f8f8;}.e{fill:#7594fb;}.f{stroke:none;}.g{fill:none;}.h{filter:url(#a);}</style><filter id="a" x="0" y="0" width="283" height="280" filterUnits="userSpaceOnUse"><feOffset dx="5" dy="15" input="SourceAlpha"/><feGaussianBlur stdDeviation="15" result="b"/><feFlood flood-color="#6587f8" flood-opacity="0.2"/><feComposite operator="in" in2="b"/><feComposite in="SourceGraphic"/></filter></defs><g transform="translate(-238.41 -1176)"><g class="h" transform="matrix(1, 0, 0, 1, 238.41, 1176)"><rect class="a" width="193" height="190" transform="translate(40 30)"/></g><g transform="translate(298.611 1230.409)"><g transform="translate(0 0)"><g class="b" transform="translate(-0.201 -0.409)"><circle class="f" cx="20" cy="20" r="20"/><circle class="g" cx="20" cy="20" r="19.5"/></g><rect class="c" width="80" height="7" rx="3.5" transform="translate(45.799 6.591)"/><rect class="d" width="106" height="5" rx="2.5" transform="translate(45.799 21.591)"/><rect class="d" width="102" height="3" rx="1.5" transform="translate(45.799 31.591)"/></g><g transform="translate(0 51.344)"><g class="b" transform="translate(-0.201 0.247)"><ellipse class="f" cx="20" cy="19" rx="20" ry="19"/><ellipse class="g" cx="20" cy="19" rx="19.5" ry="18.5"/></g><rect class="c" width="80" height="8" rx="4" transform="translate(45.799 6.247)"/><rect class="d" width="106" height="5" rx="2.5" transform="translate(45.799 20.247)"/><rect class="d" width="102" height="5" rx="2.5" transform="translate(45.799 29.247)"/></g><g transform="translate(0 101.846)"><g class="b" transform="translate(-0.201 -0.255)"><circle class="f" cx="20" cy="20" r="20"/><circle class="g" cx="20" cy="20" r="19.5"/></g><rect class="c" width="80" height="8" rx="4" transform="translate(45.799 5.745)"/><rect class="d" width="106" height="4" rx="2" transform="translate(45.799 21.745)"/><rect class="d" width="102" height="5" rx="2.5" transform="translate(45.799 29.745)"/></g></g><g transform="translate(309.41 1188.93)"><g transform="translate(0 53.55)"><path class="e" d="M5.947,64.807l-4.46-4.46L0,61.833,5.947,67.78,18.69,55.037,17.2,53.55Z" transform="translate(0 -53.55)"/></g></g><g transform="translate(309.41 1239.93)"><g transform="translate(0 53.55)"><path class="e" d="M5.947,64.807l-4.46-4.46L0,61.833,5.947,67.78,18.69,55.037,17.2,53.55Z" transform="translate(0 -53.55)"/></g></g><g transform="translate(309.41 1293.93)"><g transform="translate(0 53.55)"><path class="e" d="M5.947,64.807l-4.46-4.46L0,61.833,5.947,67.78,18.69,55.037,17.2,53.55Z" transform="translate(0 -53.55)"/></g></g></g></svg>