<svg xmlns="http://www.w3.org/2000/svg" width="327.612" height="219.235" viewBox="0 0 327.612 219.235"><defs><style>.a{fill:#7594fb;}</style></defs><g transform="translate(527.398 317.366)"><g transform="translate(-527.398 -317.366)"><path class="a" d="M-523.165-315.249a2.117,2.117,0,0,1-2.117,2.117,2.117,2.117,0,0,1-2.117-2.117,2.117,2.117,0,0,1,2.117-2.117A2.117,2.117,0,0,1-523.165-315.249Z" transform="translate(527.398 317.366)"/><path class="a" d="M-502.758-315.249a2.117,2.117,0,0,1-2.117,2.117,2.117,2.117,0,0,1-2.117-2.117,2.117,2.117,0,0,1,2.117-2.117A2.117,2.117,0,0,1-502.758-315.249Z" transform="translate(522.39 317.366)"/><path class="a" d="M-482.351-315.249a2.117,2.117,0,0,1-2.117,2.117,2.117,2.117,0,0,1-2.117-2.117,2.117,2.117,0,0,1,2.117-2.117A2.117,2.117,0,0,1-482.351-315.249Z" transform="translate(517.382 317.366)"/><path class="a" d="M-461.943-315.249a2.117,2.117,0,0,1-2.117,2.117,2.116,2.116,0,0,1-2.117-2.117,2.116,2.116,0,0,1,2.117-2.117A2.117,2.117,0,0,1-461.943-315.249Z" transform="translate(512.373 317.366)"/><path class="a" d="M-441.536-315.249a2.117,2.117,0,0,1-2.116,2.117,2.117,2.117,0,0,1-2.117-2.117,2.117,2.117,0,0,1,2.117-2.117A2.117,2.117,0,0,1-441.536-315.249Z" transform="translate(507.365 317.366)"/><path class="a" d="M-421.129-315.249a2.117,2.117,0,0,1-2.117,2.117,2.117,2.117,0,0,1-2.117-2.117,2.117,2.117,0,0,1,2.117-2.117A2.117,2.117,0,0,1-421.129-315.249Z" transform="translate(502.357 317.366)"/><path class="a" d="M-400.721-315.249a2.117,2.117,0,0,1-2.117,2.117,2.116,2.116,0,0,1-2.117-2.117,2.116,2.116,0,0,1,2.117-2.117A2.117,2.117,0,0,1-400.721-315.249Z" transform="translate(497.348 317.366)"/><path class="a" d="M-380.314-315.249a2.117,2.117,0,0,1-2.117,2.117,2.117,2.117,0,0,1-2.117-2.117,2.117,2.117,0,0,1,2.117-2.117A2.117,2.117,0,0,1-380.314-315.249Z" transform="translate(492.34 317.366)"/><path class="a" d="M-359.907-315.249a2.117,2.117,0,0,1-2.117,2.117,2.117,2.117,0,0,1-2.117-2.117,2.117,2.117,0,0,1,2.117-2.117A2.117,2.117,0,0,1-359.907-315.249Z" transform="translate(487.332 317.366)"/><path class="a" d="M-339.5-315.249a2.116,2.116,0,0,1-2.117,2.117,2.116,2.116,0,0,1-2.116-2.117,2.116,2.116,0,0,1,2.116-2.117A2.116,2.116,0,0,1-339.5-315.249Z" transform="translate(482.323 317.366)"/><path class="a" d="M-319.092-315.249a2.117,2.117,0,0,1-2.117,2.117,2.117,2.117,0,0,1-2.117-2.117,2.117,2.117,0,0,1,2.117-2.117A2.117,2.117,0,0,1-319.092-315.249Z" transform="translate(477.315 317.366)"/><path class="a" d="M-298.685-315.249a2.117,2.117,0,0,1-2.117,2.117,2.117,2.117,0,0,1-2.117-2.117,2.117,2.117,0,0,1,2.117-2.117A2.117,2.117,0,0,1-298.685-315.249Z" transform="translate(472.307 317.366)"/><path class="a" d="M-278.278-315.249a2.116,2.116,0,0,1-2.117,2.117,2.116,2.116,0,0,1-2.116-2.117,2.116,2.116,0,0,1,2.116-2.117A2.116,2.116,0,0,1-278.278-315.249Z" transform="translate(467.298 317.366)"/><path class="a" d="M-257.87-315.249a2.117,2.117,0,0,1-2.117,2.117,2.117,2.117,0,0,1-2.117-2.117,2.117,2.117,0,0,1,2.117-2.117A2.117,2.117,0,0,1-257.87-315.249Z" transform="translate(462.29 317.366)"/><path class="a" d="M-237.463-315.249a2.117,2.117,0,0,1-2.117,2.117,2.117,2.117,0,0,1-2.117-2.117,2.117,2.117,0,0,1,2.117-2.117A2.117,2.117,0,0,1-237.463-315.249Z" transform="translate(457.282 317.366)"/><path class="a" d="M-217.056-315.249a2.116,2.116,0,0,1-2.117,2.117,2.116,2.116,0,0,1-2.116-2.117,2.116,2.116,0,0,1,2.116-2.117A2.116,2.116,0,0,1-217.056-315.249Z" transform="translate(452.274 317.366)"/><path class="a" d="M-196.648-315.249a2.117,2.117,0,0,1-2.117,2.117,2.117,2.117,0,0,1-2.117-2.117,2.117,2.117,0,0,1,2.117-2.117A2.117,2.117,0,0,1-196.648-315.249Z" transform="translate(447.265 317.366)"/><path class="a" d="M-176.241-315.249a2.117,2.117,0,0,1-2.117,2.117,2.117,2.117,0,0,1-2.117-2.117,2.117,2.117,0,0,1,2.117-2.117A2.117,2.117,0,0,1-176.241-315.249Z" transform="translate(442.257 317.366)"/><path class="a" d="M-155.834-315.249a2.116,2.116,0,0,1-2.117,2.117,2.117,2.117,0,0,1-2.117-2.117,2.117,2.117,0,0,1,2.117-2.117A2.116,2.116,0,0,1-155.834-315.249Z" transform="translate(437.249 317.366)"/><path class="a" d="M-135.426-315.249a2.117,2.117,0,0,1-2.117,2.117,2.117,2.117,0,0,1-2.117-2.117,2.117,2.117,0,0,1,2.117-2.117A2.117,2.117,0,0,1-135.426-315.249Z" transform="translate(432.24 317.366)"/><path class="a" d="M-115.019-315.249a2.117,2.117,0,0,1-2.117,2.117,2.117,2.117,0,0,1-2.117-2.117,2.117,2.117,0,0,1,2.117-2.117A2.117,2.117,0,0,1-115.019-315.249Z" transform="translate(427.232 317.366)"/><path class="a" d="M-94.612-315.249a2.116,2.116,0,0,1-2.117,2.117,2.117,2.117,0,0,1-2.117-2.117,2.117,2.117,0,0,1,2.117-2.117A2.116,2.116,0,0,1-94.612-315.249Z" transform="translate(422.224 317.366)"/></g><g transform="translate(-527.398 -209.865)"><path class="a" d="M-523.165-172.785a2.117,2.117,0,0,1-2.117,2.117,2.117,2.117,0,0,1-2.117-2.117,2.117,2.117,0,0,1,2.117-2.117A2.117,2.117,0,0,1-523.165-172.785Z" transform="translate(527.398 174.902)"/><path class="a" d="M-502.758-172.785a2.117,2.117,0,0,1-2.117,2.117,2.117,2.117,0,0,1-2.117-2.117,2.117,2.117,0,0,1,2.117-2.117A2.117,2.117,0,0,1-502.758-172.785Z" transform="translate(522.39 174.902)"/><path class="a" d="M-482.351-172.785a2.117,2.117,0,0,1-2.117,2.117,2.117,2.117,0,0,1-2.117-2.117,2.117,2.117,0,0,1,2.117-2.117A2.117,2.117,0,0,1-482.351-172.785Z" transform="translate(517.382 174.902)"/><path class="a" d="M-461.943-172.785a2.117,2.117,0,0,1-2.117,2.117,2.116,2.116,0,0,1-2.117-2.117,2.116,2.116,0,0,1,2.117-2.117A2.117,2.117,0,0,1-461.943-172.785Z" transform="translate(512.373 174.902)"/><path class="a" d="M-441.536-172.785a2.117,2.117,0,0,1-2.116,2.117,2.117,2.117,0,0,1-2.117-2.117,2.117,2.117,0,0,1,2.117-2.117A2.117,2.117,0,0,1-441.536-172.785Z" transform="translate(507.365 174.902)"/><path class="a" d="M-421.129-172.785a2.117,2.117,0,0,1-2.117,2.117,2.117,2.117,0,0,1-2.117-2.117,2.117,2.117,0,0,1,2.117-2.117A2.117,2.117,0,0,1-421.129-172.785Z" transform="translate(502.357 174.902)"/><path class="a" d="M-400.721-172.785a2.117,2.117,0,0,1-2.117,2.117,2.116,2.116,0,0,1-2.117-2.117,2.116,2.116,0,0,1,2.117-2.117A2.117,2.117,0,0,1-400.721-172.785Z" transform="translate(497.348 174.902)"/><path class="a" d="M-380.314-172.785a2.117,2.117,0,0,1-2.117,2.117,2.117,2.117,0,0,1-2.117-2.117,2.117,2.117,0,0,1,2.117-2.117A2.117,2.117,0,0,1-380.314-172.785Z" transform="translate(492.34 174.902)"/><path class="a" d="M-359.907-172.785a2.117,2.117,0,0,1-2.117,2.117,2.117,2.117,0,0,1-2.117-2.117,2.117,2.117,0,0,1,2.117-2.117A2.117,2.117,0,0,1-359.907-172.785Z" transform="translate(487.332 174.902)"/><path class="a" d="M-339.5-172.785a2.116,2.116,0,0,1-2.117,2.117,2.116,2.116,0,0,1-2.116-2.117,2.116,2.116,0,0,1,2.116-2.117A2.116,2.116,0,0,1-339.5-172.785Z" transform="translate(482.323 174.902)"/><path class="a" d="M-319.092-172.785a2.117,2.117,0,0,1-2.117,2.117,2.117,2.117,0,0,1-2.117-2.117,2.117,2.117,0,0,1,2.117-2.117A2.117,2.117,0,0,1-319.092-172.785Z" transform="translate(477.315 174.902)"/><path class="a" d="M-298.685-172.785a2.117,2.117,0,0,1-2.117,2.117,2.117,2.117,0,0,1-2.117-2.117A2.117,2.117,0,0,1-300.8-174.9,2.117,2.117,0,0,1-298.685-172.785Z" transform="translate(472.307 174.902)"/><path class="a" d="M-278.278-172.785a2.116,2.116,0,0,1-2.117,2.117,2.116,2.116,0,0,1-2.116-2.117,2.116,2.116,0,0,1,2.116-2.117A2.116,2.116,0,0,1-278.278-172.785Z" transform="translate(467.298 174.902)"/><path class="a" d="M-257.87-172.785a2.117,2.117,0,0,1-2.117,2.117,2.117,2.117,0,0,1-2.117-2.117,2.117,2.117,0,0,1,2.117-2.117A2.117,2.117,0,0,1-257.87-172.785Z" transform="translate(462.29 174.902)"/><path class="a" d="M-237.463-172.785a2.117,2.117,0,0,1-2.117,2.117,2.117,2.117,0,0,1-2.117-2.117,2.117,2.117,0,0,1,2.117-2.117A2.117,2.117,0,0,1-237.463-172.785Z" transform="translate(457.282 174.902)"/><path class="a" d="M-217.056-172.785a2.116,2.116,0,0,1-2.117,2.117,2.116,2.116,0,0,1-2.116-2.117,2.116,2.116,0,0,1,2.116-2.117A2.116,2.116,0,0,1-217.056-172.785Z" transform="translate(452.274 174.902)"/><path class="a" d="M-196.648-172.785a2.117,2.117,0,0,1-2.117,2.117,2.117,2.117,0,0,1-2.117-2.117,2.117,2.117,0,0,1,2.117-2.117A2.117,2.117,0,0,1-196.648-172.785Z" transform="translate(447.265 174.902)"/><path class="a" d="M-176.241-172.785a2.117,2.117,0,0,1-2.117,2.117,2.117,2.117,0,0,1-2.117-2.117,2.117,2.117,0,0,1,2.117-2.117A2.117,2.117,0,0,1-176.241-172.785Z" transform="translate(442.257 174.902)"/><path class="a" d="M-155.834-172.785a2.116,2.116,0,0,1-2.117,2.117,2.117,2.117,0,0,1-2.117-2.117,2.117,2.117,0,0,1,2.117-2.117A2.116,2.116,0,0,1-155.834-172.785Z" transform="translate(437.249 174.902)"/><path class="a" d="M-135.426-172.785a2.117,2.117,0,0,1-2.117,2.117,2.117,2.117,0,0,1-2.117-2.117,2.117,2.117,0,0,1,2.117-2.117A2.117,2.117,0,0,1-135.426-172.785Z" transform="translate(432.24 174.902)"/><path class="a" d="M-115.019-172.785a2.117,2.117,0,0,1-2.117,2.117,2.117,2.117,0,0,1-2.117-2.117,2.117,2.117,0,0,1,2.117-2.117A2.117,2.117,0,0,1-115.019-172.785Z" transform="translate(427.232 174.902)"/><path class="a" d="M-94.612-172.785a2.116,2.116,0,0,1-2.117,2.117,2.117,2.117,0,0,1-2.117-2.117,2.117,2.117,0,0,1,2.117-2.117A2.116,2.116,0,0,1-94.612-172.785Z" transform="translate(422.224 174.902)"/></g><g transform="translate(-527.398 -191.948)"><path class="a" d="M-523.165-149.041a2.117,2.117,0,0,1-2.117,2.117,2.117,2.117,0,0,1-2.117-2.117,2.117,2.117,0,0,1,2.117-2.117A2.117,2.117,0,0,1-523.165-149.041Z" transform="translate(527.398 151.158)"/><path class="a" d="M-502.758-149.041a2.117,2.117,0,0,1-2.117,2.117,2.117,2.117,0,0,1-2.117-2.117,2.117,2.117,0,0,1,2.117-2.117A2.117,2.117,0,0,1-502.758-149.041Z" transform="translate(522.39 151.158)"/><path class="a" d="M-482.351-149.041a2.117,2.117,0,0,1-2.117,2.117,2.117,2.117,0,0,1-2.117-2.117,2.117,2.117,0,0,1,2.117-2.117A2.117,2.117,0,0,1-482.351-149.041Z" transform="translate(517.382 151.158)"/><path class="a" d="M-461.943-149.041a2.117,2.117,0,0,1-2.117,2.117,2.116,2.116,0,0,1-2.117-2.117,2.116,2.116,0,0,1,2.117-2.117A2.117,2.117,0,0,1-461.943-149.041Z" transform="translate(512.373 151.158)"/><path class="a" d="M-441.536-149.041a2.117,2.117,0,0,1-2.116,2.117,2.117,2.117,0,0,1-2.117-2.117,2.117,2.117,0,0,1,2.117-2.117A2.117,2.117,0,0,1-441.536-149.041Z" transform="translate(507.365 151.158)"/><path class="a" d="M-421.129-149.041a2.117,2.117,0,0,1-2.117,2.117,2.117,2.117,0,0,1-2.117-2.117,2.117,2.117,0,0,1,2.117-2.117A2.117,2.117,0,0,1-421.129-149.041Z" transform="translate(502.357 151.158)"/><path class="a" d="M-400.721-149.041a2.117,2.117,0,0,1-2.117,2.117,2.116,2.116,0,0,1-2.117-2.117,2.116,2.116,0,0,1,2.117-2.117A2.117,2.117,0,0,1-400.721-149.041Z" transform="translate(497.348 151.158)"/><path class="a" d="M-380.314-149.041a2.117,2.117,0,0,1-2.117,2.117,2.117,2.117,0,0,1-2.117-2.117,2.117,2.117,0,0,1,2.117-2.117A2.117,2.117,0,0,1-380.314-149.041Z" transform="translate(492.34 151.158)"/><path class="a" d="M-359.907-149.041a2.117,2.117,0,0,1-2.117,2.117,2.117,2.117,0,0,1-2.117-2.117,2.117,2.117,0,0,1,2.117-2.117A2.117,2.117,0,0,1-359.907-149.041Z" transform="translate(487.332 151.158)"/><path class="a" d="M-339.5-149.041a2.116,2.116,0,0,1-2.117,2.117,2.116,2.116,0,0,1-2.116-2.117,2.116,2.116,0,0,1,2.116-2.117A2.116,2.116,0,0,1-339.5-149.041Z" transform="translate(482.323 151.158)"/><path class="a" d="M-319.092-149.041a2.117,2.117,0,0,1-2.117,2.117,2.117,2.117,0,0,1-2.117-2.117,2.117,2.117,0,0,1,2.117-2.117A2.117,2.117,0,0,1-319.092-149.041Z" transform="translate(477.315 151.158)"/><path class="a" d="M-298.685-149.041a2.117,2.117,0,0,1-2.117,2.117,2.117,2.117,0,0,1-2.117-2.117,2.117,2.117,0,0,1,2.117-2.117A2.117,2.117,0,0,1-298.685-149.041Z" transform="translate(472.307 151.158)"/><path class="a" d="M-278.278-149.041a2.116,2.116,0,0,1-2.117,2.117,2.116,2.116,0,0,1-2.116-2.117,2.116,2.116,0,0,1,2.116-2.117A2.116,2.116,0,0,1-278.278-149.041Z" transform="translate(467.298 151.158)"/><path class="a" d="M-257.87-149.041a2.117,2.117,0,0,1-2.117,2.117,2.117,2.117,0,0,1-2.117-2.117,2.117,2.117,0,0,1,2.117-2.117A2.117,2.117,0,0,1-257.87-149.041Z" transform="translate(462.29 151.158)"/><path class="a" d="M-237.463-149.041a2.117,2.117,0,0,1-2.117,2.117,2.117,2.117,0,0,1-2.117-2.117,2.117,2.117,0,0,1,2.117-2.117A2.117,2.117,0,0,1-237.463-149.041Z" transform="translate(457.282 151.158)"/><path class="a" d="M-217.056-149.041a2.116,2.116,0,0,1-2.117,2.117,2.116,2.116,0,0,1-2.116-2.117,2.116,2.116,0,0,1,2.116-2.117A2.116,2.116,0,0,1-217.056-149.041Z" transform="translate(452.274 151.158)"/><path class="a" d="M-196.648-149.041a2.117,2.117,0,0,1-2.117,2.117,2.117,2.117,0,0,1-2.117-2.117,2.117,2.117,0,0,1,2.117-2.117A2.117,2.117,0,0,1-196.648-149.041Z" transform="translate(447.265 151.158)"/><path class="a" d="M-176.241-149.041a2.117,2.117,0,0,1-2.117,2.117,2.117,2.117,0,0,1-2.117-2.117,2.117,2.117,0,0,1,2.117-2.117A2.117,2.117,0,0,1-176.241-149.041Z" transform="translate(442.257 151.158)"/><path class="a" d="M-155.834-149.041a2.116,2.116,0,0,1-2.117,2.117,2.117,2.117,0,0,1-2.117-2.117,2.117,2.117,0,0,1,2.117-2.117A2.116,2.116,0,0,1-155.834-149.041Z" transform="translate(437.249 151.158)"/><path class="a" d="M-135.426-149.041a2.117,2.117,0,0,1-2.117,2.117,2.117,2.117,0,0,1-2.117-2.117,2.117,2.117,0,0,1,2.117-2.117A2.117,2.117,0,0,1-135.426-149.041Z" transform="translate(432.24 151.158)"/><path class="a" d="M-115.019-149.041a2.117,2.117,0,0,1-2.117,2.117,2.117,2.117,0,0,1-2.117-2.117,2.117,2.117,0,0,1,2.117-2.117A2.117,2.117,0,0,1-115.019-149.041Z" transform="translate(427.232 151.158)"/><path class="a" d="M-94.612-149.041a2.116,2.116,0,0,1-2.117,2.117,2.117,2.117,0,0,1-2.117-2.117,2.117,2.117,0,0,1,2.117-2.117A2.116,2.116,0,0,1-94.612-149.041Z" transform="translate(422.224 151.158)"/></g><g transform="translate(-527.398 -174.031)"><path class="a" d="M-523.165-125.3a2.117,2.117,0,0,1-2.117,2.117A2.117,2.117,0,0,1-527.4-125.3a2.117,2.117,0,0,1,2.117-2.117A2.117,2.117,0,0,1-523.165-125.3Z" transform="translate(527.398 127.414)"/><path class="a" d="M-502.758-125.3a2.117,2.117,0,0,1-2.117,2.117,2.117,2.117,0,0,1-2.117-2.117,2.117,2.117,0,0,1,2.117-2.117A2.117,2.117,0,0,1-502.758-125.3Z" transform="translate(522.39 127.414)"/><path class="a" d="M-482.351-125.3a2.117,2.117,0,0,1-2.117,2.117,2.117,2.117,0,0,1-2.117-2.117,2.117,2.117,0,0,1,2.117-2.117A2.117,2.117,0,0,1-482.351-125.3Z" transform="translate(517.382 127.414)"/><path class="a" d="M-461.943-125.3a2.117,2.117,0,0,1-2.117,2.117,2.116,2.116,0,0,1-2.117-2.117,2.116,2.116,0,0,1,2.117-2.117A2.117,2.117,0,0,1-461.943-125.3Z" transform="translate(512.373 127.414)"/><path class="a" d="M-441.536-125.3a2.117,2.117,0,0,1-2.116,2.117,2.117,2.117,0,0,1-2.117-2.117,2.117,2.117,0,0,1,2.117-2.117A2.117,2.117,0,0,1-441.536-125.3Z" transform="translate(507.365 127.414)"/><path class="a" d="M-421.129-125.3a2.117,2.117,0,0,1-2.117,2.117,2.117,2.117,0,0,1-2.117-2.117,2.117,2.117,0,0,1,2.117-2.117A2.117,2.117,0,0,1-421.129-125.3Z" transform="translate(502.357 127.414)"/><path class="a" d="M-400.721-125.3a2.117,2.117,0,0,1-2.117,2.117,2.116,2.116,0,0,1-2.117-2.117,2.116,2.116,0,0,1,2.117-2.117A2.117,2.117,0,0,1-400.721-125.3Z" transform="translate(497.348 127.414)"/><path class="a" d="M-380.314-125.3a2.117,2.117,0,0,1-2.117,2.117,2.117,2.117,0,0,1-2.117-2.117,2.117,2.117,0,0,1,2.117-2.117A2.117,2.117,0,0,1-380.314-125.3Z" transform="translate(492.34 127.414)"/><path class="a" d="M-359.907-125.3a2.117,2.117,0,0,1-2.117,2.117,2.117,2.117,0,0,1-2.117-2.117,2.117,2.117,0,0,1,2.117-2.117A2.117,2.117,0,0,1-359.907-125.3Z" transform="translate(487.332 127.414)"/><path class="a" d="M-339.5-125.3a2.116,2.116,0,0,1-2.117,2.117,2.116,2.116,0,0,1-2.116-2.117,2.116,2.116,0,0,1,2.116-2.117A2.116,2.116,0,0,1-339.5-125.3Z" transform="translate(482.323 127.414)"/><path class="a" d="M-319.092-125.3a2.117,2.117,0,0,1-2.117,2.117,2.117,2.117,0,0,1-2.117-2.117,2.117,2.117,0,0,1,2.117-2.117A2.117,2.117,0,0,1-319.092-125.3Z" transform="translate(477.315 127.414)"/><path class="a" d="M-298.685-125.3a2.117,2.117,0,0,1-2.117,2.117,2.117,2.117,0,0,1-2.117-2.117,2.117,2.117,0,0,1,2.117-2.117A2.117,2.117,0,0,1-298.685-125.3Z" transform="translate(472.307 127.414)"/><path class="a" d="M-278.278-125.3a2.116,2.116,0,0,1-2.117,2.117,2.116,2.116,0,0,1-2.116-2.117,2.116,2.116,0,0,1,2.116-2.117A2.116,2.116,0,0,1-278.278-125.3Z" transform="translate(467.298 127.414)"/><path class="a" d="M-257.87-125.3a2.117,2.117,0,0,1-2.117,2.117A2.117,2.117,0,0,1-262.1-125.3a2.117,2.117,0,0,1,2.117-2.117A2.117,2.117,0,0,1-257.87-125.3Z" transform="translate(462.29 127.414)"/><path class="a" d="M-237.463-125.3a2.117,2.117,0,0,1-2.117,2.117A2.117,2.117,0,0,1-241.7-125.3a2.117,2.117,0,0,1,2.117-2.117A2.117,2.117,0,0,1-237.463-125.3Z" transform="translate(457.282 127.414)"/><path class="a" d="M-217.056-125.3a2.116,2.116,0,0,1-2.117,2.117,2.116,2.116,0,0,1-2.116-2.117,2.116,2.116,0,0,1,2.116-2.117A2.116,2.116,0,0,1-217.056-125.3Z" transform="translate(452.274 127.414)"/><path class="a" d="M-196.648-125.3a2.117,2.117,0,0,1-2.117,2.117,2.117,2.117,0,0,1-2.117-2.117,2.117,2.117,0,0,1,2.117-2.117A2.117,2.117,0,0,1-196.648-125.3Z" transform="translate(447.265 127.414)"/><path class="a" d="M-176.241-125.3a2.117,2.117,0,0,1-2.117,2.117,2.117,2.117,0,0,1-2.117-2.117,2.117,2.117,0,0,1,2.117-2.117A2.117,2.117,0,0,1-176.241-125.3Z" transform="translate(442.257 127.414)"/><path class="a" d="M-155.834-125.3a2.116,2.116,0,0,1-2.117,2.117,2.117,2.117,0,0,1-2.117-2.117,2.117,2.117,0,0,1,2.117-2.117A2.116,2.116,0,0,1-155.834-125.3Z" transform="translate(437.249 127.414)"/><path class="a" d="M-135.426-125.3a2.117,2.117,0,0,1-2.117,2.117,2.117,2.117,0,0,1-2.117-2.117,2.117,2.117,0,0,1,2.117-2.117A2.117,2.117,0,0,1-135.426-125.3Z" transform="translate(432.24 127.414)"/><path class="a" d="M-115.019-125.3a2.117,2.117,0,0,1-2.117,2.117,2.117,2.117,0,0,1-2.117-2.117,2.117,2.117,0,0,1,2.117-2.117A2.117,2.117,0,0,1-115.019-125.3Z" transform="translate(427.232 127.414)"/><path class="a" d="M-94.612-125.3a2.116,2.116,0,0,1-2.117,2.117,2.117,2.117,0,0,1-2.117-2.117,2.117,2.117,0,0,1,2.117-2.117A2.116,2.116,0,0,1-94.612-125.3Z" transform="translate(422.224 127.414)"/></g><g transform="translate(-527.398 -156.115)"><path class="a" d="M-523.165-101.553a2.117,2.117,0,0,1-2.117,2.117,2.117,2.117,0,0,1-2.117-2.117,2.117,2.117,0,0,1,2.117-2.117A2.117,2.117,0,0,1-523.165-101.553Z" transform="translate(527.398 103.67)"/><path class="a" d="M-502.758-101.553a2.117,2.117,0,0,1-2.117,2.117,2.117,2.117,0,0,1-2.117-2.117,2.117,2.117,0,0,1,2.117-2.117A2.117,2.117,0,0,1-502.758-101.553Z" transform="translate(522.39 103.67)"/><path class="a" d="M-482.351-101.553a2.117,2.117,0,0,1-2.117,2.117,2.117,2.117,0,0,1-2.117-2.117,2.117,2.117,0,0,1,2.117-2.117A2.117,2.117,0,0,1-482.351-101.553Z" transform="translate(517.382 103.67)"/><path class="a" d="M-461.943-101.553a2.117,2.117,0,0,1-2.117,2.117,2.116,2.116,0,0,1-2.117-2.117,2.116,2.116,0,0,1,2.117-2.117A2.117,2.117,0,0,1-461.943-101.553Z" transform="translate(512.373 103.67)"/><path class="a" d="M-441.536-101.553a2.117,2.117,0,0,1-2.116,2.117,2.117,2.117,0,0,1-2.117-2.117,2.117,2.117,0,0,1,2.117-2.117A2.117,2.117,0,0,1-441.536-101.553Z" transform="translate(507.365 103.67)"/><path class="a" d="M-421.129-101.553a2.117,2.117,0,0,1-2.117,2.117,2.117,2.117,0,0,1-2.117-2.117,2.117,2.117,0,0,1,2.117-2.117A2.117,2.117,0,0,1-421.129-101.553Z" transform="translate(502.357 103.67)"/><path class="a" d="M-400.721-101.553a2.117,2.117,0,0,1-2.117,2.117,2.116,2.116,0,0,1-2.117-2.117,2.116,2.116,0,0,1,2.117-2.117A2.117,2.117,0,0,1-400.721-101.553Z" transform="translate(497.348 103.67)"/><path class="a" d="M-380.314-101.553a2.117,2.117,0,0,1-2.117,2.117,2.117,2.117,0,0,1-2.117-2.117,2.117,2.117,0,0,1,2.117-2.117A2.117,2.117,0,0,1-380.314-101.553Z" transform="translate(492.34 103.67)"/><path class="a" d="M-359.907-101.553a2.117,2.117,0,0,1-2.117,2.117,2.117,2.117,0,0,1-2.117-2.117,2.117,2.117,0,0,1,2.117-2.117A2.117,2.117,0,0,1-359.907-101.553Z" transform="translate(487.332 103.67)"/><path class="a" d="M-339.5-101.553a2.116,2.116,0,0,1-2.117,2.117,2.116,2.116,0,0,1-2.116-2.117,2.116,2.116,0,0,1,2.116-2.117A2.116,2.116,0,0,1-339.5-101.553Z" transform="translate(482.323 103.67)"/><path class="a" d="M-319.092-101.553a2.117,2.117,0,0,1-2.117,2.117,2.117,2.117,0,0,1-2.117-2.117,2.117,2.117,0,0,1,2.117-2.117A2.117,2.117,0,0,1-319.092-101.553Z" transform="translate(477.315 103.67)"/><path class="a" d="M-298.685-101.553a2.117,2.117,0,0,1-2.117,2.117,2.117,2.117,0,0,1-2.117-2.117,2.117,2.117,0,0,1,2.117-2.117A2.117,2.117,0,0,1-298.685-101.553Z" transform="translate(472.307 103.67)"/><path class="a" d="M-278.278-101.553a2.116,2.116,0,0,1-2.117,2.117,2.116,2.116,0,0,1-2.116-2.117,2.116,2.116,0,0,1,2.116-2.117A2.116,2.116,0,0,1-278.278-101.553Z" transform="translate(467.298 103.67)"/><path class="a" d="M-257.87-101.553a2.117,2.117,0,0,1-2.117,2.117,2.117,2.117,0,0,1-2.117-2.117,2.117,2.117,0,0,1,2.117-2.117A2.117,2.117,0,0,1-257.87-101.553Z" transform="translate(462.29 103.67)"/><path class="a" d="M-237.463-101.553a2.117,2.117,0,0,1-2.117,2.117,2.117,2.117,0,0,1-2.117-2.117,2.117,2.117,0,0,1,2.117-2.117A2.117,2.117,0,0,1-237.463-101.553Z" transform="translate(457.282 103.67)"/><path class="a" d="M-217.056-101.553a2.116,2.116,0,0,1-2.117,2.117,2.116,2.116,0,0,1-2.116-2.117,2.116,2.116,0,0,1,2.116-2.117A2.116,2.116,0,0,1-217.056-101.553Z" transform="translate(452.274 103.67)"/><path class="a" d="M-196.648-101.553a2.117,2.117,0,0,1-2.117,2.117,2.117,2.117,0,0,1-2.117-2.117,2.117,2.117,0,0,1,2.117-2.117A2.117,2.117,0,0,1-196.648-101.553Z" transform="translate(447.265 103.67)"/><path class="a" d="M-176.241-101.553a2.117,2.117,0,0,1-2.117,2.117,2.117,2.117,0,0,1-2.117-2.117,2.117,2.117,0,0,1,2.117-2.117A2.117,2.117,0,0,1-176.241-101.553Z" transform="translate(442.257 103.67)"/><path class="a" d="M-155.834-101.553a2.116,2.116,0,0,1-2.117,2.117,2.117,2.117,0,0,1-2.117-2.117,2.117,2.117,0,0,1,2.117-2.117A2.116,2.116,0,0,1-155.834-101.553Z" transform="translate(437.249 103.67)"/><path class="a" d="M-135.426-101.553a2.117,2.117,0,0,1-2.117,2.117,2.117,2.117,0,0,1-2.117-2.117,2.117,2.117,0,0,1,2.117-2.117A2.117,2.117,0,0,1-135.426-101.553Z" transform="translate(432.24 103.67)"/><path class="a" d="M-115.019-101.553a2.117,2.117,0,0,1-2.117,2.117,2.117,2.117,0,0,1-2.117-2.117,2.117,2.117,0,0,1,2.117-2.117A2.117,2.117,0,0,1-115.019-101.553Z" transform="translate(427.232 103.67)"/><path class="a" d="M-94.612-101.553a2.116,2.116,0,0,1-2.117,2.117,2.117,2.117,0,0,1-2.117-2.117,2.117,2.117,0,0,1,2.117-2.117A2.116,2.116,0,0,1-94.612-101.553Z" transform="translate(422.224 103.67)"/></g><g transform="translate(-527.398 -138.198)"><path class="a" d="M-523.165-77.809a2.117,2.117,0,0,1-2.117,2.117,2.117,2.117,0,0,1-2.117-2.117,2.117,2.117,0,0,1,2.117-2.117A2.117,2.117,0,0,1-523.165-77.809Z" transform="translate(527.398 79.926)"/><path class="a" d="M-502.758-77.809a2.117,2.117,0,0,1-2.117,2.117,2.117,2.117,0,0,1-2.117-2.117,2.117,2.117,0,0,1,2.117-2.117A2.117,2.117,0,0,1-502.758-77.809Z" transform="translate(522.39 79.926)"/><path class="a" d="M-482.351-77.809a2.117,2.117,0,0,1-2.117,2.117,2.117,2.117,0,0,1-2.117-2.117,2.117,2.117,0,0,1,2.117-2.117A2.117,2.117,0,0,1-482.351-77.809Z" transform="translate(517.382 79.926)"/><path class="a" d="M-461.943-77.809a2.117,2.117,0,0,1-2.117,2.117,2.116,2.116,0,0,1-2.117-2.117,2.116,2.116,0,0,1,2.117-2.117A2.117,2.117,0,0,1-461.943-77.809Z" transform="translate(512.373 79.926)"/><path class="a" d="M-441.536-77.809a2.117,2.117,0,0,1-2.116,2.117,2.117,2.117,0,0,1-2.117-2.117,2.117,2.117,0,0,1,2.117-2.117A2.117,2.117,0,0,1-441.536-77.809Z" transform="translate(507.365 79.926)"/><path class="a" d="M-421.129-77.809a2.117,2.117,0,0,1-2.117,2.117,2.117,2.117,0,0,1-2.117-2.117,2.117,2.117,0,0,1,2.117-2.117A2.117,2.117,0,0,1-421.129-77.809Z" transform="translate(502.357 79.926)"/><path class="a" d="M-400.721-77.809a2.117,2.117,0,0,1-2.117,2.117,2.116,2.116,0,0,1-2.117-2.117,2.116,2.116,0,0,1,2.117-2.117A2.117,2.117,0,0,1-400.721-77.809Z" transform="translate(497.348 79.926)"/><path class="a" d="M-380.314-77.809a2.117,2.117,0,0,1-2.117,2.117,2.117,2.117,0,0,1-2.117-2.117,2.117,2.117,0,0,1,2.117-2.117A2.117,2.117,0,0,1-380.314-77.809Z" transform="translate(492.34 79.926)"/><path class="a" d="M-359.907-77.809a2.117,2.117,0,0,1-2.117,2.117,2.117,2.117,0,0,1-2.117-2.117,2.117,2.117,0,0,1,2.117-2.117A2.117,2.117,0,0,1-359.907-77.809Z" transform="translate(487.332 79.926)"/><path class="a" d="M-339.5-77.809a2.116,2.116,0,0,1-2.117,2.117,2.116,2.116,0,0,1-2.116-2.117,2.116,2.116,0,0,1,2.116-2.117A2.116,2.116,0,0,1-339.5-77.809Z" transform="translate(482.323 79.926)"/><path class="a" d="M-319.092-77.809a2.117,2.117,0,0,1-2.117,2.117,2.117,2.117,0,0,1-2.117-2.117,2.117,2.117,0,0,1,2.117-2.117A2.117,2.117,0,0,1-319.092-77.809Z" transform="translate(477.315 79.926)"/><path class="a" d="M-298.685-77.809a2.117,2.117,0,0,1-2.117,2.117,2.117,2.117,0,0,1-2.117-2.117,2.117,2.117,0,0,1,2.117-2.117A2.117,2.117,0,0,1-298.685-77.809Z" transform="translate(472.307 79.926)"/><path class="a" d="M-278.278-77.809a2.116,2.116,0,0,1-2.117,2.117,2.116,2.116,0,0,1-2.116-2.117,2.116,2.116,0,0,1,2.116-2.117A2.116,2.116,0,0,1-278.278-77.809Z" transform="translate(467.298 79.926)"/><path class="a" d="M-257.87-77.809a2.117,2.117,0,0,1-2.117,2.117,2.117,2.117,0,0,1-2.117-2.117,2.117,2.117,0,0,1,2.117-2.117A2.117,2.117,0,0,1-257.87-77.809Z" transform="translate(462.29 79.926)"/><path class="a" d="M-237.463-77.809a2.117,2.117,0,0,1-2.117,2.117,2.117,2.117,0,0,1-2.117-2.117,2.117,2.117,0,0,1,2.117-2.117A2.117,2.117,0,0,1-237.463-77.809Z" transform="translate(457.282 79.926)"/><path class="a" d="M-217.056-77.809a2.116,2.116,0,0,1-2.117,2.117,2.116,2.116,0,0,1-2.116-2.117,2.116,2.116,0,0,1,2.116-2.117A2.116,2.116,0,0,1-217.056-77.809Z" transform="translate(452.274 79.926)"/><path class="a" d="M-196.648-77.809a2.117,2.117,0,0,1-2.117,2.117,2.117,2.117,0,0,1-2.117-2.117,2.117,2.117,0,0,1,2.117-2.117A2.117,2.117,0,0,1-196.648-77.809Z" transform="translate(447.265 79.926)"/><path class="a" d="M-176.241-77.809a2.117,2.117,0,0,1-2.117,2.117,2.117,2.117,0,0,1-2.117-2.117,2.117,2.117,0,0,1,2.117-2.117A2.117,2.117,0,0,1-176.241-77.809Z" transform="translate(442.257 79.926)"/><path class="a" d="M-155.834-77.809a2.116,2.116,0,0,1-2.117,2.117,2.117,2.117,0,0,1-2.117-2.117,2.117,2.117,0,0,1,2.117-2.117A2.116,2.116,0,0,1-155.834-77.809Z" transform="translate(437.249 79.926)"/><path class="a" d="M-135.426-77.809a2.117,2.117,0,0,1-2.117,2.117,2.117,2.117,0,0,1-2.117-2.117,2.117,2.117,0,0,1,2.117-2.117A2.117,2.117,0,0,1-135.426-77.809Z" transform="translate(432.24 79.926)"/><path class="a" d="M-115.019-77.809a2.117,2.117,0,0,1-2.117,2.117,2.117,2.117,0,0,1-2.117-2.117,2.117,2.117,0,0,1,2.117-2.117A2.117,2.117,0,0,1-115.019-77.809Z" transform="translate(427.232 79.926)"/><path class="a" d="M-94.612-77.809a2.116,2.116,0,0,1-2.117,2.117,2.117,2.117,0,0,1-2.117-2.117,2.117,2.117,0,0,1,2.117-2.117A2.116,2.116,0,0,1-94.612-77.809Z" transform="translate(422.224 79.926)"/></g><g transform="translate(-527.398 -120.281)"><path class="a" d="M-523.165-54.065a2.117,2.117,0,0,1-2.117,2.117,2.117,2.117,0,0,1-2.117-2.117,2.117,2.117,0,0,1,2.117-2.117A2.117,2.117,0,0,1-523.165-54.065Z" transform="translate(527.398 56.182)"/><path class="a" d="M-502.758-54.065a2.117,2.117,0,0,1-2.117,2.117,2.117,2.117,0,0,1-2.117-2.117,2.117,2.117,0,0,1,2.117-2.117A2.117,2.117,0,0,1-502.758-54.065Z" transform="translate(522.39 56.182)"/><path class="a" d="M-482.351-54.065a2.117,2.117,0,0,1-2.117,2.117,2.117,2.117,0,0,1-2.117-2.117,2.117,2.117,0,0,1,2.117-2.117A2.117,2.117,0,0,1-482.351-54.065Z" transform="translate(517.382 56.182)"/><path class="a" d="M-461.943-54.065a2.117,2.117,0,0,1-2.117,2.117,2.116,2.116,0,0,1-2.117-2.117,2.116,2.116,0,0,1,2.117-2.117A2.117,2.117,0,0,1-461.943-54.065Z" transform="translate(512.373 56.182)"/><path class="a" d="M-441.536-54.065a2.117,2.117,0,0,1-2.116,2.117,2.117,2.117,0,0,1-2.117-2.117,2.117,2.117,0,0,1,2.117-2.117A2.117,2.117,0,0,1-441.536-54.065Z" transform="translate(507.365 56.182)"/><path class="a" d="M-421.129-54.065a2.117,2.117,0,0,1-2.117,2.117,2.117,2.117,0,0,1-2.117-2.117,2.117,2.117,0,0,1,2.117-2.117A2.117,2.117,0,0,1-421.129-54.065Z" transform="translate(502.357 56.182)"/><path class="a" d="M-400.721-54.065a2.117,2.117,0,0,1-2.117,2.117,2.116,2.116,0,0,1-2.117-2.117,2.116,2.116,0,0,1,2.117-2.117A2.117,2.117,0,0,1-400.721-54.065Z" transform="translate(497.348 56.182)"/><path class="a" d="M-380.314-54.065a2.117,2.117,0,0,1-2.117,2.117,2.117,2.117,0,0,1-2.117-2.117,2.117,2.117,0,0,1,2.117-2.117A2.117,2.117,0,0,1-380.314-54.065Z" transform="translate(492.34 56.182)"/><path class="a" d="M-359.907-54.065a2.117,2.117,0,0,1-2.117,2.117,2.117,2.117,0,0,1-2.117-2.117,2.117,2.117,0,0,1,2.117-2.117A2.117,2.117,0,0,1-359.907-54.065Z" transform="translate(487.332 56.182)"/><path class="a" d="M-339.5-54.065a2.116,2.116,0,0,1-2.117,2.117,2.116,2.116,0,0,1-2.116-2.117,2.116,2.116,0,0,1,2.116-2.117A2.116,2.116,0,0,1-339.5-54.065Z" transform="translate(482.323 56.182)"/><path class="a" d="M-319.092-54.065a2.117,2.117,0,0,1-2.117,2.117,2.117,2.117,0,0,1-2.117-2.117,2.117,2.117,0,0,1,2.117-2.117A2.117,2.117,0,0,1-319.092-54.065Z" transform="translate(477.315 56.182)"/><path class="a" d="M-298.685-54.065a2.117,2.117,0,0,1-2.117,2.117,2.117,2.117,0,0,1-2.117-2.117,2.117,2.117,0,0,1,2.117-2.117A2.117,2.117,0,0,1-298.685-54.065Z" transform="translate(472.307 56.182)"/><path class="a" d="M-278.278-54.065a2.116,2.116,0,0,1-2.117,2.117,2.116,2.116,0,0,1-2.116-2.117,2.116,2.116,0,0,1,2.116-2.117A2.116,2.116,0,0,1-278.278-54.065Z" transform="translate(467.298 56.182)"/><path class="a" d="M-257.87-54.065a2.117,2.117,0,0,1-2.117,2.117,2.117,2.117,0,0,1-2.117-2.117,2.117,2.117,0,0,1,2.117-2.117A2.117,2.117,0,0,1-257.87-54.065Z" transform="translate(462.29 56.182)"/><path class="a" d="M-237.463-54.065a2.117,2.117,0,0,1-2.117,2.117,2.117,2.117,0,0,1-2.117-2.117,2.117,2.117,0,0,1,2.117-2.117A2.117,2.117,0,0,1-237.463-54.065Z" transform="translate(457.282 56.182)"/><path class="a" d="M-217.056-54.065a2.116,2.116,0,0,1-2.117,2.117,2.116,2.116,0,0,1-2.116-2.117,2.116,2.116,0,0,1,2.116-2.117A2.116,2.116,0,0,1-217.056-54.065Z" transform="translate(452.274 56.182)"/><path class="a" d="M-196.648-54.065a2.117,2.117,0,0,1-2.117,2.117,2.117,2.117,0,0,1-2.117-2.117,2.117,2.117,0,0,1,2.117-2.117A2.117,2.117,0,0,1-196.648-54.065Z" transform="translate(447.265 56.182)"/><path class="a" d="M-176.241-54.065a2.117,2.117,0,0,1-2.117,2.117,2.117,2.117,0,0,1-2.117-2.117,2.117,2.117,0,0,1,2.117-2.117A2.117,2.117,0,0,1-176.241-54.065Z" transform="translate(442.257 56.182)"/><path class="a" d="M-155.834-54.065a2.116,2.116,0,0,1-2.117,2.117,2.117,2.117,0,0,1-2.117-2.117,2.117,2.117,0,0,1,2.117-2.117A2.116,2.116,0,0,1-155.834-54.065Z" transform="translate(437.249 56.182)"/><path class="a" d="M-135.426-54.065a2.117,2.117,0,0,1-2.117,2.117,2.117,2.117,0,0,1-2.117-2.117,2.117,2.117,0,0,1,2.117-2.117A2.117,2.117,0,0,1-135.426-54.065Z" transform="translate(432.24 56.182)"/><path class="a" d="M-115.019-54.065a2.117,2.117,0,0,1-2.117,2.117,2.117,2.117,0,0,1-2.117-2.117,2.117,2.117,0,0,1,2.117-2.117A2.117,2.117,0,0,1-115.019-54.065Z" transform="translate(427.232 56.182)"/><path class="a" d="M-94.612-54.065a2.116,2.116,0,0,1-2.117,2.117,2.117,2.117,0,0,1-2.117-2.117,2.117,2.117,0,0,1,2.117-2.117A2.116,2.116,0,0,1-94.612-54.065Z" transform="translate(422.224 56.182)"/></g><g transform="translate(-527.398 -227.782)"><path class="a" d="M-523.165-196.529a2.117,2.117,0,0,1-2.117,2.117,2.117,2.117,0,0,1-2.117-2.117,2.117,2.117,0,0,1,2.117-2.117A2.117,2.117,0,0,1-523.165-196.529Z" transform="translate(527.398 198.646)"/><path class="a" d="M-502.758-196.529a2.117,2.117,0,0,1-2.117,2.117,2.117,2.117,0,0,1-2.117-2.117,2.117,2.117,0,0,1,2.117-2.117A2.117,2.117,0,0,1-502.758-196.529Z" transform="translate(522.39 198.646)"/><path class="a" d="M-482.351-196.529a2.117,2.117,0,0,1-2.117,2.117,2.117,2.117,0,0,1-2.117-2.117,2.117,2.117,0,0,1,2.117-2.117A2.117,2.117,0,0,1-482.351-196.529Z" transform="translate(517.382 198.646)"/><path class="a" d="M-461.943-196.529a2.117,2.117,0,0,1-2.117,2.117,2.116,2.116,0,0,1-2.117-2.117,2.116,2.116,0,0,1,2.117-2.117A2.117,2.117,0,0,1-461.943-196.529Z" transform="translate(512.373 198.646)"/><path class="a" d="M-441.536-196.529a2.117,2.117,0,0,1-2.116,2.117,2.117,2.117,0,0,1-2.117-2.117,2.117,2.117,0,0,1,2.117-2.117A2.117,2.117,0,0,1-441.536-196.529Z" transform="translate(507.365 198.646)"/><path class="a" d="M-421.129-196.529a2.117,2.117,0,0,1-2.117,2.117,2.117,2.117,0,0,1-2.117-2.117,2.117,2.117,0,0,1,2.117-2.117A2.117,2.117,0,0,1-421.129-196.529Z" transform="translate(502.357 198.646)"/><path class="a" d="M-400.721-196.529a2.117,2.117,0,0,1-2.117,2.117,2.116,2.116,0,0,1-2.117-2.117,2.116,2.116,0,0,1,2.117-2.117A2.117,2.117,0,0,1-400.721-196.529Z" transform="translate(497.348 198.646)"/><path class="a" d="M-380.314-196.529a2.117,2.117,0,0,1-2.117,2.117,2.117,2.117,0,0,1-2.117-2.117,2.117,2.117,0,0,1,2.117-2.117A2.117,2.117,0,0,1-380.314-196.529Z" transform="translate(492.34 198.646)"/><path class="a" d="M-359.907-196.529a2.117,2.117,0,0,1-2.117,2.117,2.117,2.117,0,0,1-2.117-2.117,2.117,2.117,0,0,1,2.117-2.117A2.117,2.117,0,0,1-359.907-196.529Z" transform="translate(487.332 198.646)"/><path class="a" d="M-339.5-196.529a2.116,2.116,0,0,1-2.117,2.117,2.116,2.116,0,0,1-2.116-2.117,2.116,2.116,0,0,1,2.116-2.117A2.116,2.116,0,0,1-339.5-196.529Z" transform="translate(482.323 198.646)"/><path class="a" d="M-319.092-196.529a2.117,2.117,0,0,1-2.117,2.117,2.117,2.117,0,0,1-2.117-2.117,2.117,2.117,0,0,1,2.117-2.117A2.117,2.117,0,0,1-319.092-196.529Z" transform="translate(477.315 198.646)"/><path class="a" d="M-298.685-196.529a2.117,2.117,0,0,1-2.117,2.117,2.117,2.117,0,0,1-2.117-2.117,2.117,2.117,0,0,1,2.117-2.117A2.117,2.117,0,0,1-298.685-196.529Z" transform="translate(472.307 198.646)"/><path class="a" d="M-278.278-196.529a2.116,2.116,0,0,1-2.117,2.117,2.116,2.116,0,0,1-2.116-2.117,2.116,2.116,0,0,1,2.116-2.117A2.116,2.116,0,0,1-278.278-196.529Z" transform="translate(467.298 198.646)"/><path class="a" d="M-257.87-196.529a2.117,2.117,0,0,1-2.117,2.117,2.117,2.117,0,0,1-2.117-2.117,2.117,2.117,0,0,1,2.117-2.117A2.117,2.117,0,0,1-257.87-196.529Z" transform="translate(462.29 198.646)"/><path class="a" d="M-237.463-196.529a2.117,2.117,0,0,1-2.117,2.117,2.117,2.117,0,0,1-2.117-2.117,2.117,2.117,0,0,1,2.117-2.117A2.117,2.117,0,0,1-237.463-196.529Z" transform="translate(457.282 198.646)"/><path class="a" d="M-217.056-196.529a2.116,2.116,0,0,1-2.117,2.117,2.116,2.116,0,0,1-2.116-2.117,2.116,2.116,0,0,1,2.116-2.117A2.116,2.116,0,0,1-217.056-196.529Z" transform="translate(452.274 198.646)"/><path class="a" d="M-196.648-196.529a2.117,2.117,0,0,1-2.117,2.117,2.117,2.117,0,0,1-2.117-2.117,2.117,2.117,0,0,1,2.117-2.117A2.117,2.117,0,0,1-196.648-196.529Z" transform="translate(447.265 198.646)"/><path class="a" d="M-176.241-196.529a2.117,2.117,0,0,1-2.117,2.117,2.117,2.117,0,0,1-2.117-2.117,2.117,2.117,0,0,1,2.117-2.117A2.117,2.117,0,0,1-176.241-196.529Z" transform="translate(442.257 198.646)"/><path class="a" d="M-155.834-196.529a2.116,2.116,0,0,1-2.117,2.117,2.117,2.117,0,0,1-2.117-2.117,2.117,2.117,0,0,1,2.117-2.117A2.116,2.116,0,0,1-155.834-196.529Z" transform="translate(437.249 198.646)"/><path class="a" d="M-135.426-196.529a2.117,2.117,0,0,1-2.117,2.117,2.117,2.117,0,0,1-2.117-2.117,2.117,2.117,0,0,1,2.117-2.117A2.117,2.117,0,0,1-135.426-196.529Z" transform="translate(432.24 198.646)"/><path class="a" d="M-115.019-196.529a2.117,2.117,0,0,1-2.117,2.117,2.117,2.117,0,0,1-2.117-2.117,2.117,2.117,0,0,1,2.117-2.117A2.117,2.117,0,0,1-115.019-196.529Z" transform="translate(427.232 198.646)"/><path class="a" d="M-94.612-196.529a2.116,2.116,0,0,1-2.117,2.117,2.117,2.117,0,0,1-2.117-2.117,2.117,2.117,0,0,1,2.117-2.117A2.116,2.116,0,0,1-94.612-196.529Z" transform="translate(422.224 198.646)"/></g><g transform="translate(-527.398 -245.699)"><path class="a" d="M-523.165-220.273a2.117,2.117,0,0,1-2.117,2.117,2.117,2.117,0,0,1-2.117-2.117,2.117,2.117,0,0,1,2.117-2.117A2.117,2.117,0,0,1-523.165-220.273Z" transform="translate(527.398 222.39)"/><path class="a" d="M-502.758-220.273a2.117,2.117,0,0,1-2.117,2.117,2.117,2.117,0,0,1-2.117-2.117,2.117,2.117,0,0,1,2.117-2.117A2.117,2.117,0,0,1-502.758-220.273Z" transform="translate(522.39 222.39)"/><path class="a" d="M-482.351-220.273a2.117,2.117,0,0,1-2.117,2.117,2.117,2.117,0,0,1-2.117-2.117,2.117,2.117,0,0,1,2.117-2.117A2.117,2.117,0,0,1-482.351-220.273Z" transform="translate(517.382 222.39)"/><path class="a" d="M-461.943-220.273a2.117,2.117,0,0,1-2.117,2.117,2.116,2.116,0,0,1-2.117-2.117,2.116,2.116,0,0,1,2.117-2.117A2.117,2.117,0,0,1-461.943-220.273Z" transform="translate(512.373 222.39)"/><path class="a" d="M-441.536-220.273a2.117,2.117,0,0,1-2.116,2.117,2.117,2.117,0,0,1-2.117-2.117,2.117,2.117,0,0,1,2.117-2.117A2.117,2.117,0,0,1-441.536-220.273Z" transform="translate(507.365 222.39)"/><path class="a" d="M-421.129-220.273a2.117,2.117,0,0,1-2.117,2.117,2.117,2.117,0,0,1-2.117-2.117,2.117,2.117,0,0,1,2.117-2.117A2.117,2.117,0,0,1-421.129-220.273Z" transform="translate(502.357 222.39)"/><path class="a" d="M-400.721-220.273a2.117,2.117,0,0,1-2.117,2.117,2.116,2.116,0,0,1-2.117-2.117,2.116,2.116,0,0,1,2.117-2.117A2.117,2.117,0,0,1-400.721-220.273Z" transform="translate(497.348 222.39)"/><path class="a" d="M-380.314-220.273a2.117,2.117,0,0,1-2.117,2.117,2.117,2.117,0,0,1-2.117-2.117,2.117,2.117,0,0,1,2.117-2.117A2.117,2.117,0,0,1-380.314-220.273Z" transform="translate(492.34 222.39)"/><path class="a" d="M-359.907-220.273a2.117,2.117,0,0,1-2.117,2.117,2.117,2.117,0,0,1-2.117-2.117,2.117,2.117,0,0,1,2.117-2.117A2.117,2.117,0,0,1-359.907-220.273Z" transform="translate(487.332 222.39)"/><path class="a" d="M-339.5-220.273a2.116,2.116,0,0,1-2.117,2.117,2.116,2.116,0,0,1-2.116-2.117,2.116,2.116,0,0,1,2.116-2.117A2.116,2.116,0,0,1-339.5-220.273Z" transform="translate(482.323 222.39)"/><path class="a" d="M-319.092-220.273a2.117,2.117,0,0,1-2.117,2.117,2.117,2.117,0,0,1-2.117-2.117,2.117,2.117,0,0,1,2.117-2.117A2.117,2.117,0,0,1-319.092-220.273Z" transform="translate(477.315 222.39)"/><path class="a" d="M-298.685-220.273a2.117,2.117,0,0,1-2.117,2.117,2.117,2.117,0,0,1-2.117-2.117,2.117,2.117,0,0,1,2.117-2.117A2.117,2.117,0,0,1-298.685-220.273Z" transform="translate(472.307 222.39)"/><path class="a" d="M-278.278-220.273a2.116,2.116,0,0,1-2.117,2.117,2.116,2.116,0,0,1-2.116-2.117,2.116,2.116,0,0,1,2.116-2.117A2.116,2.116,0,0,1-278.278-220.273Z" transform="translate(467.298 222.39)"/><path class="a" d="M-257.87-220.273a2.117,2.117,0,0,1-2.117,2.117,2.117,2.117,0,0,1-2.117-2.117,2.117,2.117,0,0,1,2.117-2.117A2.117,2.117,0,0,1-257.87-220.273Z" transform="translate(462.29 222.39)"/><path class="a" d="M-237.463-220.273a2.117,2.117,0,0,1-2.117,2.117,2.117,2.117,0,0,1-2.117-2.117,2.117,2.117,0,0,1,2.117-2.117A2.117,2.117,0,0,1-237.463-220.273Z" transform="translate(457.282 222.39)"/><path class="a" d="M-217.056-220.273a2.116,2.116,0,0,1-2.117,2.117,2.116,2.116,0,0,1-2.116-2.117,2.116,2.116,0,0,1,2.116-2.117A2.116,2.116,0,0,1-217.056-220.273Z" transform="translate(452.274 222.39)"/><path class="a" d="M-196.648-220.273a2.117,2.117,0,0,1-2.117,2.117,2.117,2.117,0,0,1-2.117-2.117,2.117,2.117,0,0,1,2.117-2.117A2.117,2.117,0,0,1-196.648-220.273Z" transform="translate(447.265 222.39)"/><path class="a" d="M-176.241-220.273a2.117,2.117,0,0,1-2.117,2.117,2.117,2.117,0,0,1-2.117-2.117,2.117,2.117,0,0,1,2.117-2.117A2.117,2.117,0,0,1-176.241-220.273Z" transform="translate(442.257 222.39)"/><path class="a" d="M-155.834-220.273a2.116,2.116,0,0,1-2.117,2.117,2.117,2.117,0,0,1-2.117-2.117,2.117,2.117,0,0,1,2.117-2.117A2.116,2.116,0,0,1-155.834-220.273Z" transform="translate(437.249 222.39)"/><path class="a" d="M-135.426-220.273a2.117,2.117,0,0,1-2.117,2.117,2.117,2.117,0,0,1-2.117-2.117,2.117,2.117,0,0,1,2.117-2.117A2.117,2.117,0,0,1-135.426-220.273Z" transform="translate(432.24 222.39)"/><path class="a" d="M-115.019-220.273a2.117,2.117,0,0,1-2.117,2.117,2.117,2.117,0,0,1-2.117-2.117,2.117,2.117,0,0,1,2.117-2.117A2.117,2.117,0,0,1-115.019-220.273Z" transform="translate(427.232 222.39)"/><path class="a" d="M-94.612-220.273a2.116,2.116,0,0,1-2.117,2.117,2.117,2.117,0,0,1-2.117-2.117,2.117,2.117,0,0,1,2.117-2.117A2.116,2.116,0,0,1-94.612-220.273Z" transform="translate(422.224 222.39)"/></g><g transform="translate(-527.398 -263.616)"><path class="a" d="M-523.165-244.017a2.117,2.117,0,0,1-2.117,2.117,2.117,2.117,0,0,1-2.117-2.117,2.117,2.117,0,0,1,2.117-2.117A2.117,2.117,0,0,1-523.165-244.017Z" transform="translate(527.398 246.134)"/><path class="a" d="M-502.758-244.017a2.117,2.117,0,0,1-2.117,2.117,2.117,2.117,0,0,1-2.117-2.117,2.117,2.117,0,0,1,2.117-2.117A2.117,2.117,0,0,1-502.758-244.017Z" transform="translate(522.39 246.134)"/><path class="a" d="M-482.351-244.017a2.117,2.117,0,0,1-2.117,2.117,2.117,2.117,0,0,1-2.117-2.117,2.117,2.117,0,0,1,2.117-2.117A2.117,2.117,0,0,1-482.351-244.017Z" transform="translate(517.382 246.134)"/><path class="a" d="M-461.943-244.017a2.117,2.117,0,0,1-2.117,2.117,2.116,2.116,0,0,1-2.117-2.117,2.116,2.116,0,0,1,2.117-2.117A2.117,2.117,0,0,1-461.943-244.017Z" transform="translate(512.373 246.134)"/><path class="a" d="M-441.536-244.017a2.117,2.117,0,0,1-2.116,2.117,2.117,2.117,0,0,1-2.117-2.117,2.117,2.117,0,0,1,2.117-2.117A2.117,2.117,0,0,1-441.536-244.017Z" transform="translate(507.365 246.134)"/><path class="a" d="M-421.129-244.017a2.117,2.117,0,0,1-2.117,2.117,2.117,2.117,0,0,1-2.117-2.117,2.117,2.117,0,0,1,2.117-2.117A2.117,2.117,0,0,1-421.129-244.017Z" transform="translate(502.357 246.134)"/><path class="a" d="M-400.721-244.017a2.117,2.117,0,0,1-2.117,2.117,2.116,2.116,0,0,1-2.117-2.117,2.116,2.116,0,0,1,2.117-2.117A2.117,2.117,0,0,1-400.721-244.017Z" transform="translate(497.348 246.134)"/><path class="a" d="M-380.314-244.017a2.117,2.117,0,0,1-2.117,2.117,2.117,2.117,0,0,1-2.117-2.117,2.117,2.117,0,0,1,2.117-2.117A2.117,2.117,0,0,1-380.314-244.017Z" transform="translate(492.34 246.134)"/><path class="a" d="M-359.907-244.017a2.117,2.117,0,0,1-2.117,2.117,2.117,2.117,0,0,1-2.117-2.117,2.117,2.117,0,0,1,2.117-2.117A2.117,2.117,0,0,1-359.907-244.017Z" transform="translate(487.332 246.134)"/><path class="a" d="M-339.5-244.017a2.116,2.116,0,0,1-2.117,2.117,2.116,2.116,0,0,1-2.116-2.117,2.116,2.116,0,0,1,2.116-2.117A2.116,2.116,0,0,1-339.5-244.017Z" transform="translate(482.323 246.134)"/><path class="a" d="M-319.092-244.017a2.117,2.117,0,0,1-2.117,2.117,2.117,2.117,0,0,1-2.117-2.117,2.117,2.117,0,0,1,2.117-2.117A2.117,2.117,0,0,1-319.092-244.017Z" transform="translate(477.315 246.134)"/><path class="a" d="M-298.685-244.017A2.117,2.117,0,0,1-300.8-241.9a2.117,2.117,0,0,1-2.117-2.117,2.117,2.117,0,0,1,2.117-2.117A2.117,2.117,0,0,1-298.685-244.017Z" transform="translate(472.307 246.134)"/><path class="a" d="M-278.278-244.017a2.116,2.116,0,0,1-2.117,2.117,2.116,2.116,0,0,1-2.116-2.117,2.116,2.116,0,0,1,2.116-2.117A2.116,2.116,0,0,1-278.278-244.017Z" transform="translate(467.298 246.134)"/><path class="a" d="M-257.87-244.017a2.117,2.117,0,0,1-2.117,2.117,2.117,2.117,0,0,1-2.117-2.117,2.117,2.117,0,0,1,2.117-2.117A2.117,2.117,0,0,1-257.87-244.017Z" transform="translate(462.29 246.134)"/><path class="a" d="M-237.463-244.017a2.117,2.117,0,0,1-2.117,2.117,2.117,2.117,0,0,1-2.117-2.117,2.117,2.117,0,0,1,2.117-2.117A2.117,2.117,0,0,1-237.463-244.017Z" transform="translate(457.282 246.134)"/><path class="a" d="M-217.056-244.017a2.116,2.116,0,0,1-2.117,2.117,2.116,2.116,0,0,1-2.116-2.117,2.116,2.116,0,0,1,2.116-2.117A2.116,2.116,0,0,1-217.056-244.017Z" transform="translate(452.274 246.134)"/><path class="a" d="M-196.648-244.017a2.117,2.117,0,0,1-2.117,2.117,2.117,2.117,0,0,1-2.117-2.117,2.117,2.117,0,0,1,2.117-2.117A2.117,2.117,0,0,1-196.648-244.017Z" transform="translate(447.265 246.134)"/><path class="a" d="M-176.241-244.017a2.117,2.117,0,0,1-2.117,2.117,2.117,2.117,0,0,1-2.117-2.117,2.117,2.117,0,0,1,2.117-2.117A2.117,2.117,0,0,1-176.241-244.017Z" transform="translate(442.257 246.134)"/><path class="a" d="M-155.834-244.017a2.116,2.116,0,0,1-2.117,2.117,2.117,2.117,0,0,1-2.117-2.117,2.117,2.117,0,0,1,2.117-2.117A2.116,2.116,0,0,1-155.834-244.017Z" transform="translate(437.249 246.134)"/><path class="a" d="M-135.426-244.017a2.117,2.117,0,0,1-2.117,2.117,2.117,2.117,0,0,1-2.117-2.117,2.117,2.117,0,0,1,2.117-2.117A2.117,2.117,0,0,1-135.426-244.017Z" transform="translate(432.24 246.134)"/><path class="a" d="M-115.019-244.017a2.117,2.117,0,0,1-2.117,2.117,2.117,2.117,0,0,1-2.117-2.117,2.117,2.117,0,0,1,2.117-2.117A2.117,2.117,0,0,1-115.019-244.017Z" transform="translate(427.232 246.134)"/><path class="a" d="M-94.612-244.017a2.116,2.116,0,0,1-2.117,2.117,2.117,2.117,0,0,1-2.117-2.117,2.117,2.117,0,0,1,2.117-2.117A2.116,2.116,0,0,1-94.612-244.017Z" transform="translate(422.224 246.134)"/></g><g transform="translate(-527.398 -281.532)"><path class="a" d="M-523.165-267.761a2.117,2.117,0,0,1-2.117,2.117,2.117,2.117,0,0,1-2.117-2.117,2.117,2.117,0,0,1,2.117-2.117A2.117,2.117,0,0,1-523.165-267.761Z" transform="translate(527.398 269.878)"/><path class="a" d="M-502.758-267.761a2.117,2.117,0,0,1-2.117,2.117,2.117,2.117,0,0,1-2.117-2.117,2.117,2.117,0,0,1,2.117-2.117A2.117,2.117,0,0,1-502.758-267.761Z" transform="translate(522.39 269.878)"/><path class="a" d="M-482.351-267.761a2.117,2.117,0,0,1-2.117,2.117,2.117,2.117,0,0,1-2.117-2.117,2.117,2.117,0,0,1,2.117-2.117A2.117,2.117,0,0,1-482.351-267.761Z" transform="translate(517.382 269.878)"/><path class="a" d="M-461.943-267.761a2.117,2.117,0,0,1-2.117,2.117,2.116,2.116,0,0,1-2.117-2.117,2.116,2.116,0,0,1,2.117-2.117A2.117,2.117,0,0,1-461.943-267.761Z" transform="translate(512.373 269.878)"/><path class="a" d="M-441.536-267.761a2.117,2.117,0,0,1-2.116,2.117,2.117,2.117,0,0,1-2.117-2.117,2.117,2.117,0,0,1,2.117-2.117A2.117,2.117,0,0,1-441.536-267.761Z" transform="translate(507.365 269.878)"/><path class="a" d="M-421.129-267.761a2.117,2.117,0,0,1-2.117,2.117,2.117,2.117,0,0,1-2.117-2.117,2.117,2.117,0,0,1,2.117-2.117A2.117,2.117,0,0,1-421.129-267.761Z" transform="translate(502.357 269.878)"/><path class="a" d="M-400.721-267.761a2.117,2.117,0,0,1-2.117,2.117,2.116,2.116,0,0,1-2.117-2.117,2.116,2.116,0,0,1,2.117-2.117A2.117,2.117,0,0,1-400.721-267.761Z" transform="translate(497.348 269.878)"/><path class="a" d="M-380.314-267.761a2.117,2.117,0,0,1-2.117,2.117,2.117,2.117,0,0,1-2.117-2.117,2.117,2.117,0,0,1,2.117-2.117A2.117,2.117,0,0,1-380.314-267.761Z" transform="translate(492.34 269.878)"/><path class="a" d="M-359.907-267.761a2.117,2.117,0,0,1-2.117,2.117,2.117,2.117,0,0,1-2.117-2.117,2.117,2.117,0,0,1,2.117-2.117A2.117,2.117,0,0,1-359.907-267.761Z" transform="translate(487.332 269.878)"/><path class="a" d="M-339.5-267.761a2.116,2.116,0,0,1-2.117,2.117,2.116,2.116,0,0,1-2.116-2.117,2.116,2.116,0,0,1,2.116-2.117A2.116,2.116,0,0,1-339.5-267.761Z" transform="translate(482.323 269.878)"/><path class="a" d="M-319.092-267.761a2.117,2.117,0,0,1-2.117,2.117,2.117,2.117,0,0,1-2.117-2.117,2.117,2.117,0,0,1,2.117-2.117A2.117,2.117,0,0,1-319.092-267.761Z" transform="translate(477.315 269.878)"/><path class="a" d="M-298.685-267.761a2.117,2.117,0,0,1-2.117,2.117,2.117,2.117,0,0,1-2.117-2.117,2.117,2.117,0,0,1,2.117-2.117A2.117,2.117,0,0,1-298.685-267.761Z" transform="translate(472.307 269.878)"/><path class="a" d="M-278.278-267.761a2.116,2.116,0,0,1-2.117,2.117,2.116,2.116,0,0,1-2.116-2.117,2.116,2.116,0,0,1,2.116-2.117A2.116,2.116,0,0,1-278.278-267.761Z" transform="translate(467.298 269.878)"/><path class="a" d="M-257.87-267.761a2.117,2.117,0,0,1-2.117,2.117,2.117,2.117,0,0,1-2.117-2.117,2.117,2.117,0,0,1,2.117-2.117A2.117,2.117,0,0,1-257.87-267.761Z" transform="translate(462.29 269.878)"/><path class="a" d="M-237.463-267.761a2.117,2.117,0,0,1-2.117,2.117,2.117,2.117,0,0,1-2.117-2.117,2.117,2.117,0,0,1,2.117-2.117A2.117,2.117,0,0,1-237.463-267.761Z" transform="translate(457.282 269.878)"/><path class="a" d="M-217.056-267.761a2.116,2.116,0,0,1-2.117,2.117,2.116,2.116,0,0,1-2.116-2.117,2.116,2.116,0,0,1,2.116-2.117A2.116,2.116,0,0,1-217.056-267.761Z" transform="translate(452.274 269.878)"/><path class="a" d="M-196.648-267.761a2.117,2.117,0,0,1-2.117,2.117,2.117,2.117,0,0,1-2.117-2.117,2.117,2.117,0,0,1,2.117-2.117A2.117,2.117,0,0,1-196.648-267.761Z" transform="translate(447.265 269.878)"/><path class="a" d="M-176.241-267.761a2.117,2.117,0,0,1-2.117,2.117,2.117,2.117,0,0,1-2.117-2.117,2.117,2.117,0,0,1,2.117-2.117A2.117,2.117,0,0,1-176.241-267.761Z" transform="translate(442.257 269.878)"/><path class="a" d="M-155.834-267.761a2.116,2.116,0,0,1-2.117,2.117,2.117,2.117,0,0,1-2.117-2.117,2.117,2.117,0,0,1,2.117-2.117A2.116,2.116,0,0,1-155.834-267.761Z" transform="translate(437.249 269.878)"/><path class="a" d="M-135.426-267.761a2.117,2.117,0,0,1-2.117,2.117,2.117,2.117,0,0,1-2.117-2.117,2.117,2.117,0,0,1,2.117-2.117A2.117,2.117,0,0,1-135.426-267.761Z" transform="translate(432.24 269.878)"/><path class="a" d="M-115.019-267.761a2.117,2.117,0,0,1-2.117,2.117,2.117,2.117,0,0,1-2.117-2.117,2.117,2.117,0,0,1,2.117-2.117A2.117,2.117,0,0,1-115.019-267.761Z" transform="translate(427.232 269.878)"/><path class="a" d="M-94.612-267.761a2.116,2.116,0,0,1-2.117,2.117,2.117,2.117,0,0,1-2.117-2.117,2.117,2.117,0,0,1,2.117-2.117A2.116,2.116,0,0,1-94.612-267.761Z" transform="translate(422.224 269.878)"/></g><g transform="translate(-527.398 -299.449)"><path class="a" d="M-523.165-291.505a2.117,2.117,0,0,1-2.117,2.117,2.117,2.117,0,0,1-2.117-2.117,2.117,2.117,0,0,1,2.117-2.117A2.117,2.117,0,0,1-523.165-291.505Z" transform="translate(527.398 293.622)"/><path class="a" d="M-502.758-291.505a2.117,2.117,0,0,1-2.117,2.117,2.117,2.117,0,0,1-2.117-2.117,2.117,2.117,0,0,1,2.117-2.117A2.117,2.117,0,0,1-502.758-291.505Z" transform="translate(522.39 293.622)"/><path class="a" d="M-482.351-291.505a2.117,2.117,0,0,1-2.117,2.117,2.117,2.117,0,0,1-2.117-2.117,2.117,2.117,0,0,1,2.117-2.117A2.117,2.117,0,0,1-482.351-291.505Z" transform="translate(517.382 293.622)"/><path class="a" d="M-461.943-291.505a2.117,2.117,0,0,1-2.117,2.117,2.116,2.116,0,0,1-2.117-2.117,2.116,2.116,0,0,1,2.117-2.117A2.117,2.117,0,0,1-461.943-291.505Z" transform="translate(512.373 293.622)"/><path class="a" d="M-441.536-291.505a2.117,2.117,0,0,1-2.116,2.117,2.117,2.117,0,0,1-2.117-2.117,2.117,2.117,0,0,1,2.117-2.117A2.117,2.117,0,0,1-441.536-291.505Z" transform="translate(507.365 293.622)"/><path class="a" d="M-421.129-291.505a2.117,2.117,0,0,1-2.117,2.117,2.117,2.117,0,0,1-2.117-2.117,2.117,2.117,0,0,1,2.117-2.117A2.117,2.117,0,0,1-421.129-291.505Z" transform="translate(502.357 293.622)"/><path class="a" d="M-400.721-291.505a2.117,2.117,0,0,1-2.117,2.117,2.116,2.116,0,0,1-2.117-2.117,2.116,2.116,0,0,1,2.117-2.117A2.117,2.117,0,0,1-400.721-291.505Z" transform="translate(497.348 293.622)"/><path class="a" d="M-380.314-291.505a2.117,2.117,0,0,1-2.117,2.117,2.117,2.117,0,0,1-2.117-2.117,2.117,2.117,0,0,1,2.117-2.117A2.117,2.117,0,0,1-380.314-291.505Z" transform="translate(492.34 293.622)"/><path class="a" d="M-359.907-291.505a2.117,2.117,0,0,1-2.117,2.117,2.117,2.117,0,0,1-2.117-2.117,2.117,2.117,0,0,1,2.117-2.117A2.117,2.117,0,0,1-359.907-291.505Z" transform="translate(487.332 293.622)"/><path class="a" d="M-339.5-291.505a2.116,2.116,0,0,1-2.117,2.117,2.116,2.116,0,0,1-2.116-2.117,2.116,2.116,0,0,1,2.116-2.117A2.116,2.116,0,0,1-339.5-291.505Z" transform="translate(482.323 293.622)"/><path class="a" d="M-319.092-291.505a2.117,2.117,0,0,1-2.117,2.117,2.117,2.117,0,0,1-2.117-2.117,2.117,2.117,0,0,1,2.117-2.117A2.117,2.117,0,0,1-319.092-291.505Z" transform="translate(477.315 293.622)"/><path class="a" d="M-298.685-291.505a2.117,2.117,0,0,1-2.117,2.117,2.117,2.117,0,0,1-2.117-2.117,2.117,2.117,0,0,1,2.117-2.117A2.117,2.117,0,0,1-298.685-291.505Z" transform="translate(472.307 293.622)"/><path class="a" d="M-278.278-291.505a2.116,2.116,0,0,1-2.117,2.117,2.116,2.116,0,0,1-2.116-2.117,2.116,2.116,0,0,1,2.116-2.117A2.116,2.116,0,0,1-278.278-291.505Z" transform="translate(467.298 293.622)"/><path class="a" d="M-257.87-291.505a2.117,2.117,0,0,1-2.117,2.117,2.117,2.117,0,0,1-2.117-2.117,2.117,2.117,0,0,1,2.117-2.117A2.117,2.117,0,0,1-257.87-291.505Z" transform="translate(462.29 293.622)"/><path class="a" d="M-237.463-291.505a2.117,2.117,0,0,1-2.117,2.117,2.117,2.117,0,0,1-2.117-2.117,2.117,2.117,0,0,1,2.117-2.117A2.117,2.117,0,0,1-237.463-291.505Z" transform="translate(457.282 293.622)"/><path class="a" d="M-217.056-291.505a2.116,2.116,0,0,1-2.117,2.117,2.116,2.116,0,0,1-2.116-2.117,2.116,2.116,0,0,1,2.116-2.117A2.116,2.116,0,0,1-217.056-291.505Z" transform="translate(452.274 293.622)"/><path class="a" d="M-196.648-291.505a2.117,2.117,0,0,1-2.117,2.117,2.117,2.117,0,0,1-2.117-2.117,2.117,2.117,0,0,1,2.117-2.117A2.117,2.117,0,0,1-196.648-291.505Z" transform="translate(447.265 293.622)"/><path class="a" d="M-176.241-291.505a2.117,2.117,0,0,1-2.117,2.117,2.117,2.117,0,0,1-2.117-2.117,2.117,2.117,0,0,1,2.117-2.117A2.117,2.117,0,0,1-176.241-291.505Z" transform="translate(442.257 293.622)"/><path class="a" d="M-155.834-291.505a2.116,2.116,0,0,1-2.117,2.117,2.117,2.117,0,0,1-2.117-2.117,2.117,2.117,0,0,1,2.117-2.117A2.116,2.116,0,0,1-155.834-291.505Z" transform="translate(437.249 293.622)"/><path class="a" d="M-135.426-291.505a2.117,2.117,0,0,1-2.117,2.117,2.117,2.117,0,0,1-2.117-2.117,2.117,2.117,0,0,1,2.117-2.117A2.117,2.117,0,0,1-135.426-291.505Z" transform="translate(432.24 293.622)"/><path class="a" d="M-115.019-291.505a2.117,2.117,0,0,1-2.117,2.117,2.117,2.117,0,0,1-2.117-2.117,2.117,2.117,0,0,1,2.117-2.117A2.117,2.117,0,0,1-115.019-291.505Z" transform="translate(427.232 293.622)"/><path class="a" d="M-94.612-291.505a2.116,2.116,0,0,1-2.117,2.117,2.117,2.117,0,0,1-2.117-2.117,2.117,2.117,0,0,1,2.117-2.117A2.116,2.116,0,0,1-94.612-291.505Z" transform="translate(422.224 293.622)"/></g><g transform="translate(-527.398 -102.364)"><path class="a" d="M-523.165-30.321a2.117,2.117,0,0,1-2.117,2.117,2.117,2.117,0,0,1-2.117-2.117,2.117,2.117,0,0,1,2.117-2.117A2.117,2.117,0,0,1-523.165-30.321Z" transform="translate(527.398 32.438)"/><path class="a" d="M-502.758-30.321a2.117,2.117,0,0,1-2.117,2.117,2.117,2.117,0,0,1-2.117-2.117,2.117,2.117,0,0,1,2.117-2.117A2.117,2.117,0,0,1-502.758-30.321Z" transform="translate(522.39 32.438)"/><path class="a" d="M-482.351-30.321a2.117,2.117,0,0,1-2.117,2.117,2.117,2.117,0,0,1-2.117-2.117,2.117,2.117,0,0,1,2.117-2.117A2.117,2.117,0,0,1-482.351-30.321Z" transform="translate(517.382 32.438)"/><path class="a" d="M-461.943-30.321A2.117,2.117,0,0,1-464.06-28.2a2.116,2.116,0,0,1-2.117-2.117,2.116,2.116,0,0,1,2.117-2.117A2.117,2.117,0,0,1-461.943-30.321Z" transform="translate(512.373 32.438)"/><path class="a" d="M-441.536-30.321a2.117,2.117,0,0,1-2.116,2.117,2.117,2.117,0,0,1-2.117-2.117,2.117,2.117,0,0,1,2.117-2.117A2.117,2.117,0,0,1-441.536-30.321Z" transform="translate(507.365 32.438)"/><path class="a" d="M-421.129-30.321a2.117,2.117,0,0,1-2.117,2.117,2.117,2.117,0,0,1-2.117-2.117,2.117,2.117,0,0,1,2.117-2.117A2.117,2.117,0,0,1-421.129-30.321Z" transform="translate(502.357 32.438)"/><path class="a" d="M-400.721-30.321a2.117,2.117,0,0,1-2.117,2.117,2.116,2.116,0,0,1-2.117-2.117,2.116,2.116,0,0,1,2.117-2.117A2.117,2.117,0,0,1-400.721-30.321Z" transform="translate(497.348 32.438)"/><path class="a" d="M-380.314-30.321A2.117,2.117,0,0,1-382.43-28.2a2.117,2.117,0,0,1-2.117-2.117,2.117,2.117,0,0,1,2.117-2.117A2.117,2.117,0,0,1-380.314-30.321Z" transform="translate(492.34 32.438)"/><path class="a" d="M-359.907-30.321a2.117,2.117,0,0,1-2.117,2.117,2.117,2.117,0,0,1-2.117-2.117,2.117,2.117,0,0,1,2.117-2.117A2.117,2.117,0,0,1-359.907-30.321Z" transform="translate(487.332 32.438)"/><path class="a" d="M-339.5-30.321a2.116,2.116,0,0,1-2.117,2.117,2.116,2.116,0,0,1-2.116-2.117,2.116,2.116,0,0,1,2.116-2.117A2.116,2.116,0,0,1-339.5-30.321Z" transform="translate(482.323 32.438)"/><path class="a" d="M-319.092-30.321a2.117,2.117,0,0,1-2.117,2.117,2.117,2.117,0,0,1-2.117-2.117,2.117,2.117,0,0,1,2.117-2.117A2.117,2.117,0,0,1-319.092-30.321Z" transform="translate(477.315 32.438)"/><path class="a" d="M-298.685-30.321A2.117,2.117,0,0,1-300.8-28.2a2.117,2.117,0,0,1-2.117-2.117,2.117,2.117,0,0,1,2.117-2.117A2.117,2.117,0,0,1-298.685-30.321Z" transform="translate(472.307 32.438)"/><path class="a" d="M-278.278-30.321a2.116,2.116,0,0,1-2.117,2.117,2.116,2.116,0,0,1-2.116-2.117,2.116,2.116,0,0,1,2.116-2.117A2.116,2.116,0,0,1-278.278-30.321Z" transform="translate(467.298 32.438)"/><path class="a" d="M-257.87-30.321a2.117,2.117,0,0,1-2.117,2.117,2.117,2.117,0,0,1-2.117-2.117,2.117,2.117,0,0,1,2.117-2.117A2.117,2.117,0,0,1-257.87-30.321Z" transform="translate(462.29 32.438)"/><path class="a" d="M-237.463-30.321a2.117,2.117,0,0,1-2.117,2.117,2.117,2.117,0,0,1-2.117-2.117,2.117,2.117,0,0,1,2.117-2.117A2.117,2.117,0,0,1-237.463-30.321Z" transform="translate(457.282 32.438)"/><path class="a" d="M-217.056-30.321a2.116,2.116,0,0,1-2.117,2.117,2.116,2.116,0,0,1-2.116-2.117,2.116,2.116,0,0,1,2.116-2.117A2.116,2.116,0,0,1-217.056-30.321Z" transform="translate(452.274 32.438)"/><path class="a" d="M-196.648-30.321a2.117,2.117,0,0,1-2.117,2.117,2.117,2.117,0,0,1-2.117-2.117,2.117,2.117,0,0,1,2.117-2.117A2.117,2.117,0,0,1-196.648-30.321Z" transform="translate(447.265 32.438)"/><path class="a" d="M-176.241-30.321a2.117,2.117,0,0,1-2.117,2.117,2.117,2.117,0,0,1-2.117-2.117,2.117,2.117,0,0,1,2.117-2.117A2.117,2.117,0,0,1-176.241-30.321Z" transform="translate(442.257 32.438)"/><path class="a" d="M-155.834-30.321A2.116,2.116,0,0,1-157.95-28.2a2.117,2.117,0,0,1-2.117-2.117,2.117,2.117,0,0,1,2.117-2.117A2.116,2.116,0,0,1-155.834-30.321Z" transform="translate(437.249 32.438)"/><path class="a" d="M-135.426-30.321a2.117,2.117,0,0,1-2.117,2.117,2.117,2.117,0,0,1-2.117-2.117,2.117,2.117,0,0,1,2.117-2.117A2.117,2.117,0,0,1-135.426-30.321Z" transform="translate(432.24 32.438)"/><path class="a" d="M-115.019-30.321a2.117,2.117,0,0,1-2.117,2.117,2.117,2.117,0,0,1-2.117-2.117,2.117,2.117,0,0,1,2.117-2.117A2.117,2.117,0,0,1-115.019-30.321Z" transform="translate(427.232 32.438)"/><path class="a" d="M-94.612-30.321A2.116,2.116,0,0,1-96.728-28.2a2.117,2.117,0,0,1-2.117-2.117,2.117,2.117,0,0,1,2.117-2.117A2.116,2.116,0,0,1-94.612-30.321Z" transform="translate(422.224 32.438)"/></g></g></svg>