<svg xmlns="http://www.w3.org/2000/svg" xmlns:xlink="http://www.w3.org/1999/xlink" width="287" height="285" viewBox="0 0 287 285"><defs><style>.a,.b{fill:#fff;}.b{stroke:#e8e8e8;}.c{fill:#cbd7fc;}.d{fill:#f8f8f8;}.e{fill:#7594fb;}.f{stroke:none;}.g{fill:none;}.h{filter:url(#a);}</style><filter id="a" x="0" y="0" width="287" height="285" filterUnits="userSpaceOnUse"><feOffset dx="5" dy="15" input="SourceAlpha"/><feGaussianBlur stdDeviation="15" result="b"/><feFlood flood-color="#6587f8" flood-opacity="0.2"/><feComposite operator="in" in2="b"/><feComposite in="SourceGraphic"/></filter></defs><g transform="translate(-1265 -1166.629)"><g class="h" transform="matrix(1, 0, 0, 1, 1265, 1166.63)"><rect class="a" width="197" height="195" transform="translate(40 30)"/></g><g transform="translate(1326.115 1222.706)"><g transform="translate(0 0)"><g class="b" transform="translate(-0.115 -0.077)"><circle class="f" cx="20" cy="20" r="20"/><circle class="g" cx="20" cy="20" r="19.5"/></g><rect class="c" width="82" height="6" rx="3" transform="translate(47.885 6.923)"/><rect class="d" width="107" height="5" rx="2.5" transform="translate(47.885 20.923)"/><rect class="d" width="103" height="5" rx="2.5" transform="translate(47.885 29.923)"/></g><g transform="translate(0 51.411)"><g class="b" transform="translate(-0.115 -0.488)"><circle class="f" cx="20" cy="20" r="20"/><circle class="g" cx="20" cy="20" r="19.5"/></g><rect class="c" width="82" height="7" rx="3.5" transform="translate(47.885 6.512)"/><rect class="d" width="107" height="4" rx="2" transform="translate(47.885 21.512)"/><rect class="d" width="103" height="5" rx="2.5" transform="translate(47.885 30.512)"/></g><g transform="translate(0 103.741)"><g class="b" transform="translate(-0.115 0.182)"><ellipse class="f" cx="20" cy="19.5" rx="20" ry="19.5"/><ellipse class="g" cx="20" cy="19.5" rx="19.5" ry="19"/></g><rect class="c" width="82" height="7" rx="3.5" transform="translate(47.885 6.182)"/><rect class="d" width="107" height="5" rx="2.5" transform="translate(47.885 21.182)"/><rect class="d" width="103" height="5" rx="2.5" transform="translate(47.885 30.182)"/></g></g><g transform="translate(1337 1180.559)"><g transform="translate(0 53.55)"><path class="e" d="M5.947,64.807l-4.46-4.46L0,61.833,5.947,67.78,18.69,55.037,17.2,53.55Z" transform="translate(0 -53.55)"/></g></g><g transform="translate(1337 1231.559)"><g transform="translate(0 53.55)"><path class="e" d="M5.947,64.807l-4.46-4.46L0,61.833,5.947,67.78,18.69,55.037,17.2,53.55Z" transform="translate(0 -53.55)"/></g></g></g></svg>