<svg xmlns="http://www.w3.org/2000/svg" width="118.953" height="118.953" viewBox="0 0 118.953 118.953">
    <defs>
        <style>
            .cls-1{fill:#717ba0}
        </style>
    </defs>
    <path id="empty" d="M118.953 59.477a59.5 59.5 0 0 1-90.5 50.768l6.819-6.819a50.165 50.165 0 0 0 68.151-68.151l6.819-6.819a59.092 59.092 0 0 1 8.711 31.021zM6.771 118.754L.2 112.183 14.262 98.12A59.478 59.478 0 0 1 59.477 0 59.032 59.032 0 0 1 98.12 14.262L112.183.2l6.571 6.571zm14.105-27.248l70.63-70.63a50.155 50.155 0 0 0-70.63 70.63z" class="cls-1"/>
</svg>
