<svg xmlns="http://www.w3.org/2000/svg" width="771.148" height="771.328" viewBox="0 0 771.148 771.328"><defs><style>.a{opacity:0.2;mix-blend-mode:multiply;isolation:isolate;}.b{fill:#a5baff;}.c{fill:#866fff;}.d{fill:#7594fb;}</style></defs><g class="a" transform="translate(63.745 -305.467)"><path class="b" d="M321.736,1076.795a383.138,383.138,0,0,1-272.7-112.956c-150.369-150.369-150.369-395.038,0-545.409a385.647,385.647,0,0,1,545.406,0,385.66,385.66,0,0,1-272.7,658.365Zm0-751.206A363.143,363.143,0,0,0,63.257,432.656c-142.521,142.528-142.521,374.433,0,516.957a365.552,365.552,0,0,0,516.954,0A365.546,365.546,0,0,0,321.736,325.589Z" transform="translate(0 0)"/><path class="c" d="M262.447,932.714a301,301,0,1,1,212.84-513.838,301,301,0,0,1-212.84,513.838Zm0-538.283a237.3,237.3,0,1,0,167.781,69.5A235.743,235.743,0,0,0,262.447,394.431Z" transform="translate(59.288 59.419)"/><path class="d" d="M195.441,770.23a205.526,205.526,0,1,1,145.328-60.2A204.18,204.18,0,0,1,195.441,770.23Zm0-390.926a185.4,185.4,0,1,0,131.1,54.3A184.207,184.207,0,0,0,195.441,379.3Z" transform="translate(126.298 126.426)"/><path class="c" d="M151.363,663.341A142.714,142.714,0,1,1,252.276,419.706c55.64,55.653,55.64,146.19,0,201.833A141.8,141.8,0,0,1,151.363,663.341Zm0-221.71a78.992,78.992,0,1,0,55.861,23.13A78.472,78.472,0,0,0,151.36,441.631Z" transform="translate(170.376 170.509)"/><path class="d" d="M176.465,353.827a38.2,38.2,0,1,1-38.2-38.194A38.2,38.2,0,0,1,176.465,353.827Z" transform="translate(385.563 23.927)"/></g></svg>