<svg xmlns="http://www.w3.org/2000/svg" width="44.203" height="33.152" viewBox="0 0 44.203 33.152"><path d="M40.059,59.882H4.144A4.149,4.149,0,0,0,0,64.026V88.89a4.149,4.149,0,0,0,4.144,4.144H40.059A4.149,4.149,0,0,0,44.2,88.89V64.026A4.149,4.149,0,0,0,40.059,59.882Zm0,2.763a1.373,1.373,0,0,1,.529.107L22.1,78.774,3.614,62.752a1.375,1.375,0,0,1,.529-.107Zm0,27.627H4.144A1.382,1.382,0,0,1,2.763,88.89V65.67L21.2,81.646a1.383,1.383,0,0,0,1.81,0L41.44,65.67V88.89A1.382,1.382,0,0,1,40.059,90.271Z" transform="translate(0 -59.882)"/></svg>