<svg xmlns="http://www.w3.org/2000/svg" width="46.264" height="46.264" viewBox="0 0 46.264 46.264"><defs><style>.a{fill:#3c5898;}.b{fill:#fafafa;}</style></defs><path class="a" d="M40.481,0H5.783A5.789,5.789,0,0,0,0,5.783v34.7a5.789,5.789,0,0,0,5.783,5.783h34.7a5.789,5.789,0,0,0,5.783-5.783V5.783A5.789,5.789,0,0,0,40.481,0Z"/><path class="b" d="M212.83,109.887h-6.943v-5.555c0-1.533,1.244-1.389,2.777-1.389h2.777V96h-5.555a8.332,8.332,0,0,0-8.332,8.332v5.555H192v6.943h5.555v15.275h8.332V116.83h4.166Z" transform="translate(-174.047 -85.842)"/></svg>