<svg xmlns="http://www.w3.org/2000/svg" width="21.03" height="23.367" viewBox="0 0 21.03 23.367"><defs><style>.a{fill:#fff;}</style></defs><path class="a" d="M21.693,3.337H16.81a3.491,3.491,0,0,0-6.589,0H5.337A2.344,2.344,0,0,0,3,5.673V22.03a2.344,2.344,0,0,0,2.337,2.337H21.693A2.344,2.344,0,0,0,24.03,22.03V5.673A2.344,2.344,0,0,0,21.693,3.337Zm-8.178,0a1.168,1.168,0,1,1-1.168,1.168A1.172,1.172,0,0,1,13.515,3.337Zm0,4.673a3.5,3.5,0,1,1-3.5,3.5A3.5,3.5,0,0,1,13.515,8.01Zm7.01,14.02H6.505V20.394c0-2.337,4.673-3.622,7.01-3.622s7.01,1.285,7.01,3.622Z" transform="translate(-3 -1)"/></svg>