<svg xmlns="http://www.w3.org/2000/svg" width="23.258" height="28.426" viewBox="0 0 23.258 28.426"><defs><style>.a{fill:#fff;}</style></defs><path class="a" d="M23.674,2.584h-5.4a3.861,3.861,0,0,0-7.287,0h-5.4A2.592,2.592,0,0,0,3,5.168V25.842a2.592,2.592,0,0,0,2.584,2.584H23.674a2.592,2.592,0,0,0,2.584-2.584V5.168A2.592,2.592,0,0,0,23.674,2.584Zm-9.045,0a1.292,1.292,0,1,1-1.292,1.292A1.3,1.3,0,0,1,14.629,2.584Zm9.045,23.258H5.584V5.168H8.168V9.045H21.089V5.168h2.584Z" transform="translate(-3)"/></svg>