<svg xmlns="http://www.w3.org/2000/svg" width="23.258" height="22.745" viewBox="0 0 23.258 22.745"><defs><style>.a{fill:#fff;}</style></defs><path class="a" d="M8.5,4.343,6.836,2.675A12.16,12.16,0,0,0,2.03,11.831H4.363A9.851,9.851,0,0,1,8.5,4.343Zm14.452,7.488h2.333a12.234,12.234,0,0,0-4.806-9.156L18.826,4.343A9.909,9.909,0,0,1,22.955,11.831Zm-2.3.583c0-3.581-1.913-6.579-5.249-7.372V4.25a1.75,1.75,0,1,0-3.5,0v.793c-3.348.793-5.249,3.779-5.249,7.372v5.832L4.328,20.579v1.166H22.99V20.579l-2.333-2.333Zm-7,12.83a2.043,2.043,0,0,0,.467-.047,2.367,2.367,0,0,0,1.68-1.376,2.342,2.342,0,0,0,.175-.91H11.315a2.35,2.35,0,0,0,2.344,2.333Z" transform="translate(-2.03 -2.5)"/></svg>