<svg xmlns="http://www.w3.org/2000/svg" width="22" height="24.444" viewBox="0 0 22 24.444"><defs><style>.a{fill:#fff;}</style></defs><path class="a" d="M21.333,20.333H6.667V17.889H21.333Zm0-4.889H6.667V13H21.333Zm0-4.889H6.667V8.111H21.333ZM3,26.444l1.833-1.833,1.833,1.833L8.5,24.611l1.833,1.833,1.833-1.833L14,26.444l1.833-1.833,1.833,1.833L19.5,24.611l1.833,1.833,1.833-1.833L25,26.444V2L23.167,3.833,21.333,2,19.5,3.833,17.667,2,15.833,3.833,14,2,12.167,3.833,10.333,2,8.5,3.833,6.667,2,4.833,3.833,3,2Z" transform="translate(-3 -2)"/></svg>