<svg xmlns="http://www.w3.org/2000/svg" width="24" height="24.673" viewBox="0 0 24 24.673"><defs><style>.a{fill:#fff;}</style></defs><path class="a" d="M23.44,15.546a9.614,9.614,0,0,0,.086-1.209,9.614,9.614,0,0,0-.086-1.209l2.6-2.036a.622.622,0,0,0,.148-.79L23.723,6.034a.62.62,0,0,0-.753-.271L19.9,7a9.013,9.013,0,0,0-2.085-1.209l-.469-3.269a.6.6,0,0,0-.6-.518H11.806a.6.6,0,0,0-.6.518l-.469,3.269A9.478,9.478,0,0,0,8.648,7L5.576,5.763a.6.6,0,0,0-.753.271L2.356,10.3a.608.608,0,0,0,.148.79l2.6,2.036a9.784,9.784,0,0,0-.086,1.209,9.784,9.784,0,0,0,.086,1.209L2.5,17.581a.622.622,0,0,0-.148.79l2.467,4.268a.62.62,0,0,0,.753.271l3.072-1.234a9.013,9.013,0,0,0,2.085,1.209l.469,3.269a.6.6,0,0,0,.6.518h4.935a.6.6,0,0,0,.6-.518l.469-3.269A9.478,9.478,0,0,0,19.9,21.677l3.072,1.234a.6.6,0,0,0,.753-.271l2.467-4.268a.622.622,0,0,0-.148-.79Zm-9.166,3.109a4.318,4.318,0,1,1,4.318-4.318A4.323,4.323,0,0,1,14.273,18.654Z" transform="translate(-2.271 -2)"/></svg>