<svg xmlns="http://www.w3.org/2000/svg" xmlns:xlink="http://www.w3.org/1999/xlink" width="46.205" height="46.205" viewBox="0 0 46.205 46.205"><defs><style>.a{fill:url(#a);}.b{fill:url(#b);}.c{fill:url(#c);}</style><linearGradient id="a" x1="0.084" y1="0.916" x2="0.916" y2="0.084" gradientUnits="objectBoundingBox"><stop offset="0" stop-color="#ffd600"/><stop offset="0.5" stop-color="#ff0100"/><stop offset="1" stop-color="#d800b9"/></linearGradient><linearGradient id="b" x1="0.146" y1="0.854" x2="0.854" y2="0.146" gradientUnits="objectBoundingBox"><stop offset="0" stop-color="#ff6400"/><stop offset="0.5" stop-color="#ff0100"/><stop offset="1" stop-color="#fd0056"/></linearGradient><linearGradient id="c" x1="0.146" y1="0.854" x2="0.854" y2="0.146" gradientUnits="objectBoundingBox"><stop offset="0" stop-color="#f30072"/><stop offset="1" stop-color="#e50097"/></linearGradient></defs><path class="a" d="M46.067,13.578A16.961,16.961,0,0,0,44.992,7.97a11.323,11.323,0,0,0-2.665-4.092,11.326,11.326,0,0,0-4.092-2.665A16.958,16.958,0,0,0,32.628.14C30.164.027,29.377,0,23.1,0s-7.061.027-9.525.139A16.963,16.963,0,0,0,7.97,1.213,11.323,11.323,0,0,0,3.878,3.878,11.325,11.325,0,0,0,1.212,7.969,16.96,16.96,0,0,0,.14,13.577C.027,16.041,0,16.828,0,23.1s.027,7.062.14,9.525a16.957,16.957,0,0,0,1.074,5.608,11.321,11.321,0,0,0,2.665,4.092A11.32,11.32,0,0,0,7.97,44.992a16.952,16.952,0,0,0,5.608,1.074c2.464.112,3.251.139,9.525.139s7.061-.026,9.525-.139a16.954,16.954,0,0,0,5.608-1.074,11.811,11.811,0,0,0,6.756-6.756,16.956,16.956,0,0,0,1.074-5.608c.112-2.464.139-3.251.139-9.525S46.179,16.041,46.067,13.578ZM41.908,32.438a12.782,12.782,0,0,1-.8,4.29,7.65,7.65,0,0,1-4.385,4.385,12.782,12.782,0,0,1-4.29.8c-2.436.111-3.166.135-9.335.135s-6.9-.023-9.336-.135a12.787,12.787,0,0,1-4.29-.8,7.16,7.16,0,0,1-2.656-1.728,7.157,7.157,0,0,1-1.728-2.656,12.782,12.782,0,0,1-.8-4.29C4.186,30,4.163,29.272,4.163,23.1s.024-6.9.135-9.336a12.791,12.791,0,0,1,.8-4.29A7.163,7.163,0,0,1,6.821,6.821,7.153,7.153,0,0,1,9.477,5.093a12.78,12.78,0,0,1,4.29-.8c2.436-.111,3.167-.135,9.335-.135h0c6.169,0,6.9.024,9.336.135a12.784,12.784,0,0,1,4.29.8,7.163,7.163,0,0,1,2.656,1.728,7.153,7.153,0,0,1,1.728,2.657,12.771,12.771,0,0,1,.8,4.29c.111,2.436.135,3.167.135,9.335S42.019,30,41.908,32.438Zm0,0" transform="translate(0)"/><path class="b" d="M136.4,124.539A11.863,11.863,0,1,0,148.266,136.4,11.864,11.864,0,0,0,136.4,124.539Zm0,19.564a7.7,7.7,0,1,1,7.7-7.7A7.7,7.7,0,0,1,136.4,144.1Zm0,0" transform="translate(-113.3 -113.3)"/><path class="c" d="M367.474,91.4a2.772,2.772,0,1,1-2.772-2.773A2.772,2.772,0,0,1,367.474,91.4Zm0,0" transform="translate(-329.267 -80.627)"/></svg>