<svg xmlns="http://www.w3.org/2000/svg" width="173.098" height="47.174" viewBox="0 0 173.098 47.174"><defs><style>.a{fill:#c227b9;}.a,.b,.c{fill-rule:evenodd;}.b{fill:#471f6e;}.c{fill:#25cbd3;}</style></defs><g transform="translate(-0.775 -0.349)"><g transform="translate(0.775 0.349)"><g transform="translate(0 0)"><g transform="translate(0 0)"><path class="a" d="M33.843,37.582a11.1,11.1,0,1,1-11.1-10.889,10.995,10.995,0,0,1,11.1,10.889" transform="translate(-4.258 -8.787)"/><path class="b" d="M37.751,29.382A18.318,18.318,0,0,1,19.263,47.523,18.318,18.318,0,0,1,.775,29.382a18.032,18.032,0,0,1,8.131-15.03,1.435,1.435,0,0,1,1.784.167s1.069,1.1,1.082,1.118l0,0a.836.836,0,0,1,.229.578.848.848,0,0,1-.386.709.649.649,0,0,1-.073.044c-.1.061-.2.125-.305.189l-.01.008c-.117.072-.229.146-.344.225l0,0A14.377,14.377,0,0,0,4.5,29.3a14.61,14.61,0,0,0,14.73,14.454A14.61,14.61,0,0,0,33.96,29.3a14.446,14.446,0,0,0-8.128-12.919,14.871,14.871,0,0,0-6.222-1.53h-.041c-.112-.005-.227-.005-.339-.005s-.2,0-.295.005h-.086A7.459,7.459,0,0,1,13.5,12.142a7.2,7.2,0,0,1-1.528-3.383,6.769,6.769,0,0,1-.1-1.157A7.4,7.4,0,0,1,26.593,6.71a.277.277,0,0,1,.01.08,6.424,6.424,0,0,1,.05.813v.033a.863.863,0,0,1-.871.84c-.058,0-1.8-.427-1.823-.433A1.391,1.391,0,0,1,22.9,6.994a.244.244,0,0,1-.01-.046.05.05,0,0,1,0-.02,3.7,3.7,0,0,0-7.325.691c0,.079,0,.159.008.236a3.564,3.564,0,0,0,.887,2.129,3.69,3.69,0,0,0,2.581,1.259h.031c.063,0,.128.005.191.005s.128,0,.19-.005h.031a18.686,18.686,0,0,1,5.544.9c.49.156.97.335,1.442.529a18.285,18.285,0,0,1,2.018.988,18.08,18.08,0,0,1,9.262,15.725" transform="translate(-0.775 -0.349)"/><path class="b" d="M78.355,29.085c-1.16,0-3.524-1.771-5.544-1.771-1.118,0-2.106.506-2.106,1.687,0,2.826,10.745,2.4,10.745,9.32,0,4.049-3.481,7.127-8.811,7.127-3.482,0-8.639-1.94-8.639-4.682a2.887,2.887,0,0,1,2.665-2.7c2.407,0,3.482,2.067,6.4,2.067,1.891,0,2.45-.591,2.45-1.729,0-2.783-10.745-2.362-10.745-9.32,0-4.217,3.481-7.085,8.381-7.085,3.051,0,7.737,1.391,7.737,4.386a2.644,2.644,0,0,1-2.536,2.7" transform="translate(-21.025 -7.283)"/><path class="b" d="M102.089,39.881c3.223,0,4.77-3.206,4.77-6.116s-1.5-6.2-4.77-6.2c-3.4,0-4.9,3.289-4.9,6.2S98.737,39.881,102.089,39.881Zm10.96,1.349c0,1.56,0,3.965-2.966,3.965-1.805,0-2.536-.97-2.966-2.573a7.457,7.457,0,0,1-5.888,2.826C95.427,45.448,91,40.6,91,33.766,91,27.1,95.556,22,101.229,22a7.123,7.123,0,0,1,5.888,2.783,2.921,2.921,0,0,1,2.966-2.531c2.966,0,2.966,2.4,2.966,3.964Z" transform="translate(-29.673 -7.283)"/><path class="b" d="M126.387,26.723A4.4,4.4,0,0,1,126,24.952,2.965,2.965,0,0,1,129.223,22a2.806,2.806,0,0,1,2.751,2.151l3.954,11.977h.086l3.954-11.977A2.807,2.807,0,0,1,142.719,22a2.965,2.965,0,0,1,3.223,2.952,4.387,4.387,0,0,1-.387,1.771l-6.232,15.689c-.6,1.561-1.247,2.531-3.353,2.531s-2.751-.97-3.352-2.531Z" transform="translate(-40.883 -7.283)"/><path class="b" d="M158.386,21.483a3.106,3.106,0,1,1,6.189,0V37.678a3.106,3.106,0,1,1-6.189,0Zm6.576-9.152a3.506,3.506,0,0,1-3.481,3.5,3.593,3.593,0,0,1-3.481-3.5,3.485,3.485,0,0,1,6.962,0Z" transform="translate(-51.132 -3.12)"/><path class="b" d="M176.352,46A3.29,3.29,0,1,1,173,49.29,3.326,3.326,0,0,1,176.352,46" transform="translate(-55.936 -14.97)"/><path class="b" d="M189,25.627a3.091,3.091,0,0,1,3.094-3.374,2.6,2.6,0,0,1,2.837,2.236c1.2-1.645,3.051-2.488,5.974-2.488,4.857,0,8.467,3.036,8.467,8.181v11.64a3.106,3.106,0,1,1-6.189,0V31.236a3.813,3.813,0,0,0-4.041-4.175c-2.535,0-3.954,1.813-3.954,4.175V41.821a3.106,3.106,0,1,1-6.189,0Z" transform="translate(-61.061 -7.283)"/><path class="b" d="M234,27.567c-3.223,0-4.813,3.289-4.813,6.115,0,3.247,1.59,6.2,4.813,6.2,3.31,0,4.857-3.036,4.857-5.989S237.4,27.567,234,27.567Zm11.046,15.6c0,7.3-4.857,10.965-11.905,10.965-2.536,0-9.757-1.223-9.757-4.554a2.981,2.981,0,0,1,2.493-2.657c1.977,0,4.169,1.9,7.737,1.9,3.008,0,5.243-1.729,5.243-4.808V42.581h-.086a7.135,7.135,0,0,1-6.232,2.868c-6.49,0-9.541-5.609-9.541-11.64C223,27.693,226.954,22,233.186,22a6.782,6.782,0,0,1,5.674,2.783,2.946,2.946,0,0,1,3.095-2.531,3.092,3.092,0,0,1,3.095,3.374Z" transform="translate(-71.95 -7.283)"/></g><g transform="translate(11.708 22.193)"><path class="c" d="M13.84,6.6a6.766,6.766,0,0,1-6.92,6.6A6.766,6.766,0,0,1,0,6.6,6.766,6.766,0,0,1,6.92,0a6.765,6.765,0,0,1,6.92,6.6"/></g></g></g></g></svg>