<svg xmlns="http://www.w3.org/2000/svg" width="24" height="23.095" viewBox="0 0 24 23.095"><defs><style>.a{fill:#fff;}</style></defs><g transform="translate(0 -1.75)"><g transform="translate(0 1.75)"><path class="a" d="M23.225,1.75H.776A.8.8,0,0,0,0,2.561V6.167a.8.8,0,0,0,.776.811H23.224A.8.8,0,0,0,24,6.167V2.561A.8.8,0,0,0,23.225,1.75Z" transform="translate(0 -1.75)"/><path class="a" d="M23.225,36.75H.776A.8.8,0,0,0,0,37.561v3.606a.8.8,0,0,0,.776.811H23.224A.8.8,0,0,0,24,41.167V37.561A.8.8,0,0,0,23.225,36.75Z" transform="translate(0 -27.817)"/><path class="a" d="M23.225,71.75H.776A.8.8,0,0,0,0,72.561v3.606a.8.8,0,0,0,.776.811H23.224A.8.8,0,0,0,24,76.167V72.561A.794.794,0,0,0,23.225,71.75Z" transform="translate(0 -53.883)"/></g></g></svg>