<svg xmlns="http://www.w3.org/2000/svg" width="20.668" height="20.801" viewBox="0 0 20.668 20.801"><defs><style>.a{fill:#fff;}</style></defs><g transform="translate(-1.666 -3.897)"><g transform="translate(0 1.75)"><path class="a" d="M23.225,1.75H.776A.8.8,0,0,0,0,2.561V6.167a.8.8,0,0,0,.776.811H23.224A.8.8,0,0,0,24,6.167V2.561A.8.8,0,0,0,23.225,1.75Z" transform="translate(6.601 1.043) rotate(45)"/><path class="a" d="M23.225,71.75H.776A.8.8,0,0,0,0,72.561v3.606a.8.8,0,0,0,.776.811H23.224A.8.8,0,0,0,24,76.167V72.561A.794.794,0,0,0,23.225,71.75Z" transform="translate(-49.069 -31.617) rotate(-45)"/></g></g></svg>