<svg xmlns="http://www.w3.org/2000/svg" width="409.968" height="189.627" viewBox="0 0 409.968 189.627"><defs><style>.a{opacity:0.2;}.b{fill:#7594fb;}</style></defs><g class="a" transform="translate(-130.326 -263.015)"><path class="b" d="M485.772,340.717c-15.062,0-22.395-12.749-28.861-24-6.055-10.528-11.281-19.622-21.3-19.622s-15.235,9.093-21.29,19.622c-6.467,11.254-13.794,24-28.861,24s-22.395-12.749-28.867-24c-6.05-10.528-11.276-19.622-21.29-19.622s-15.246,9.093-21.3,19.627c-6.467,11.249-13.8,24-28.862,24s-22.395-12.749-28.856-24c-6.055-10.528-11.281-19.622-21.29-19.622s-15.24,9.093-21.29,19.622c-6.472,11.254-13.805,24-28.867,24s-22.389-12.749-28.862-24c-6.055-10.528-11.276-19.622-21.3-19.622a4.365,4.365,0,1,1,0-8.73c15.062,0,22.395,12.754,28.867,24,6.049,10.534,11.276,19.627,21.29,19.627s15.246-9.093,21.3-19.627c6.472-11.249,13.8-24,28.861-24s22.389,12.754,28.856,24c6.055,10.534,11.281,19.627,21.29,19.627s15.24-9.093,21.29-19.622c6.472-11.254,13.8-24.009,28.867-24.009s22.389,12.754,28.861,24c6.055,10.534,11.276,19.627,21.3,19.627s15.24-9.093,21.29-19.627c6.467-11.249,13.8-24,28.861-24s22.395,12.754,28.861,24c6.055,10.534,11.281,19.627,21.3,19.627s15.24-9.093,21.3-19.627c6.472-11.249,13.8-24,28.861-24a4.365,4.365,0,1,1,0,8.73c-10.014,0-15.24,9.093-21.29,19.622C508.167,327.968,500.834,340.717,485.772,340.717Z" transform="translate(0 111.926)"/><path class="b" d="M485.772,328.044c-15.062,0-22.395-12.749-28.861-24-6.055-10.528-11.281-19.622-21.3-19.622s-15.235,9.093-21.29,19.622c-6.467,11.254-13.794,24-28.861,24s-22.395-12.749-28.867-24c-6.05-10.528-11.276-19.622-21.29-19.622s-15.246,9.093-21.3,19.627c-6.467,11.249-13.8,24-28.862,24s-22.395-12.749-28.856-24c-6.055-10.528-11.281-19.622-21.29-19.622s-15.24,9.093-21.29,19.622c-6.472,11.254-13.805,24-28.867,24s-22.389-12.749-28.862-24c-6.055-10.528-11.276-19.622-21.3-19.622a4.365,4.365,0,0,1,0-8.731c15.062,0,22.395,12.755,28.867,24,6.049,10.529,11.276,19.622,21.29,19.622s15.246-9.093,21.3-19.622c6.472-11.249,13.8-24,28.861-24s22.389,12.755,28.856,24c6.055,10.529,11.281,19.622,21.29,19.622s15.24-9.093,21.29-19.617c6.472-11.254,13.8-24.009,28.867-24.009s22.389,12.755,28.861,24c6.055,10.529,11.276,19.622,21.3,19.622s15.24-9.093,21.29-19.622c6.467-11.249,13.8-24,28.861-24s22.395,12.755,28.861,24c6.055,10.529,11.281,19.622,21.3,19.622s15.24-9.093,21.3-19.622c6.472-11.249,13.8-24,28.861-24a4.365,4.365,0,1,1,0,8.731c-10.014,0-15.24,9.093-21.29,19.622C508.167,315.295,500.834,328.044,485.772,328.044Z" transform="translate(0 55.963)"/><path class="b" d="M485.772,315.371c-15.062,0-22.395-12.755-28.861-24-6.055-10.528-11.281-19.622-21.3-19.622s-15.235,9.093-21.29,19.622c-6.467,11.249-13.794,24-28.861,24s-22.395-12.755-28.867-24c-6.05-10.528-11.276-19.622-21.29-19.622s-15.246,9.093-21.3,19.622c-6.467,11.249-13.8,24-28.862,24s-22.395-12.755-28.856-24c-6.055-10.528-11.281-19.622-21.29-19.622s-15.24,9.093-21.29,19.622c-6.472,11.249-13.8,24-28.867,24s-22.389-12.755-28.862-24c-6.055-10.528-11.276-19.622-21.3-19.622a4.365,4.365,0,0,1,0-8.731c15.067,0,22.395,12.754,28.867,24,6.049,10.529,11.276,19.622,21.29,19.622s15.246-9.093,21.3-19.622c6.472-11.249,13.8-24,28.861-24s22.389,12.754,28.856,24c6.055,10.529,11.281,19.622,21.29,19.622s15.24-9.093,21.29-19.622c6.472-11.249,13.8-24,28.867-24s22.389,12.754,28.861,24c6.055,10.529,11.276,19.622,21.3,19.622s15.24-9.093,21.29-19.622c6.467-11.249,13.8-24,28.861-24s22.395,12.754,28.861,24c6.055,10.529,11.281,19.622,21.3,19.622s15.24-9.093,21.3-19.622c6.472-11.249,13.8-24,28.861-24a4.365,4.365,0,1,1,0,8.731c-10.014,0-15.24,9.093-21.29,19.622C508.167,302.616,500.839,315.371,485.772,315.371Z" transform="translate(0)"/></g></svg>