<svg xmlns="http://www.w3.org/2000/svg" width="107.645" height="44.057" viewBox="0 0 107.645 44.057"><defs><style>.a{fill:#fff;}</style></defs><g transform="translate(0.03)"><path class="a" d="M38.27,95.028H29V88.75H54.111v6.278H44.848v26.165H38.263Z" transform="translate(-29.03 -77.751)"/><path class="a" d="M38.27,44.918H29V38.64H54.111v6.278H44.848" transform="translate(-29.03 -38.64)"/><path class="a" d="M149,141.379V127.55h6.19v13.829c0,3.029,1.8,5,4.785,5s4.785-1.976,4.785-5V127.55h6.19v13.829c0,6.717-4.127,10.668-10.975,10.668C153.171,152.047,149,148.1,149,141.379Z" transform="translate(-122.689 -108.034)"/><path class="a" d="M286.571,84.55h6.19v33.365H286.7v-2.941a9.213,9.213,0,0,1-7.419,3.512,11.2,11.2,0,0,1-8.473-3.556,13.612,13.612,0,0,1,0-17.956,11.151,11.151,0,0,1,8.473-3.6,9.346,9.346,0,0,1,7.288,3.38Zm-1.537,16.507a6.111,6.111,0,0,0-4.785-2.019,6.267,6.267,0,0,0-4.829,2.019,6.872,6.872,0,0,0-1.844,4.873,7.087,7.087,0,0,0,1.844,4.961,6.387,6.387,0,0,0,4.829,1.976,6.225,6.225,0,0,0,4.785-1.976,7.087,7.087,0,0,0,1.844-4.961A6.911,6.911,0,0,0,285.034,101.057Z" transform="translate(-215.123 -74.472)"/><path class="a" d="M406.2,128.238a13.368,13.368,0,0,1,18.439,0,12.886,12.886,0,0,1,0,17.868,13.485,13.485,0,0,1-18.438,0,12.886,12.886,0,0,1,0-17.868ZM415.419,144a6.232,6.232,0,0,0,4.7-1.976,6.905,6.905,0,0,0,1.932-4.873,6.73,6.73,0,0,0-1.932-4.829,6.232,6.232,0,0,0-4.7-1.976,6.328,6.328,0,0,0-4.741,1.976,6.691,6.691,0,0,0-1.888,4.829,6.866,6.866,0,0,0,1.888,4.873A6.328,6.328,0,0,0,415.419,144Z" transform="translate(-320.623 -105.692)"/></g></svg>