<svg xmlns="http://www.w3.org/2000/svg" width="538.721" height="221.077" viewBox="0 0 538.721 221.077"><defs><style>.a{fill:none;stroke:#ff73b9;}</style></defs><g transform="translate(0.53 0.5)"><path class="a" d="M75.3,120.11H29V88.75H154.439v31.36H108.167v130.7H75.272Z" transform="translate(-29.03 -33.805)"/><path class="a" d="M75.3,70H29V38.64H154.439V70H108.167" transform="translate(-29.03 -38.64)"/><path class="a" d="M149,196.629V127.55h30.921v69.079c0,15.132,8.991,25,23.9,25s23.9-9.868,23.9-25V127.55h30.921v69.079c0,33.553-20.614,53.29-54.825,53.29C169.833,249.919,149,230.182,149,196.629Z" transform="translate(-17.451 -30.061)"/><path class="a" d="M363.045,84.55h30.921V251.217H363.7V236.524c-9.649,11.623-21.93,17.544-37.061,17.544-16.886,0-31.14-5.921-42.325-17.763-11.184-12.061-16.886-26.974-16.886-44.956,0-17.763,5.7-32.676,16.886-44.737,11.4-12.061,25.439-17.982,42.325-17.982,14.474,0,26.535,5.7,36.4,16.886Zm-7.675,82.456c-6.141-6.8-14.035-10.088-23.9-10.088s-17.763,3.29-24.123,10.088q-9.211,9.868-9.211,24.342c0,9.868,3.07,17.982,9.211,24.781C313.7,222.708,321.6,226,331.465,226s17.763-3.289,23.9-9.868c6.14-6.8,9.211-14.912,9.211-24.781Q364.546,176.875,355.369,167.006Z" transform="translate(-6.023 -34.21)"/><path class="a" d="M420.582,142.971q18.092-18.421,46.053-18.421t46.053,18.421c12.061,12.062,17.982,26.974,17.982,44.518,0,17.763-5.921,32.676-17.982,44.737s-27.412,18.2-46.053,18.2-33.991-6.14-46.053-18.2S402.6,205.252,402.6,187.489C402.633,169.945,408.521,155.033,420.582,142.971ZM466.635,221.7a31.13,31.13,0,0,0,23.465-9.868,34.5,34.5,0,0,0,9.649-24.342,33.62,33.62,0,0,0-9.649-24.123,31.13,31.13,0,0,0-23.465-9.868,31.612,31.612,0,0,0-23.684,9.868,33.422,33.422,0,0,0-9.43,24.123,34.3,34.3,0,0,0,9.43,24.342A31.612,31.612,0,0,0,466.635,221.7Z" transform="translate(7.02 -30.35)"/></g></svg>