<svg xmlns="http://www.w3.org/2000/svg" width="541.131" height="222.064" viewBox="0 0 541.131 222.064"><defs><style>.a{fill:none;stroke:#73ffb4;}</style></defs><g transform="translate(0.53 0.5)"><path class="a" d="M75.513,120.25H29V88.75H155v31.5H108.522V251.538H75.479Z" transform="translate(-29.03 -33.558)"/><path class="a" d="M75.513,70.14H29V38.64H155v31.5H108.522" transform="translate(-29.03 -38.64)"/><path class="a" d="M149,196.939V127.55h31.06v69.389c0,15.2,9.032,25.112,24.011,25.112s24.011-9.913,24.011-25.112V127.55h31.06v69.389c0,33.7-20.706,53.529-55.07,53.529C169.927,250.467,149,230.642,149,196.939Z" transform="translate(-16.861 -29.624)"/><path class="a" d="M363.473,84.55h31.06V251.964h-30.4V237.205c-9.692,11.675-22.028,17.622-37.228,17.622-16.962,0-31.28-5.947-42.514-17.843-11.234-12.115-16.962-27.095-16.962-45.158,0-17.843,5.728-32.822,16.962-44.938,11.455-12.115,25.553-18.063,42.514-18.063,14.539,0,26.654,5.727,36.567,16.962Zm-7.71,82.826c-6.168-6.829-14.1-10.133-24.011-10.133s-17.843,3.3-24.231,10.133q-9.252,9.913-9.252,24.451c0,9.913,3.084,18.063,9.252,24.892,6.388,6.608,14.318,9.913,24.231,9.913s17.843-3.3,24.011-9.913c6.168-6.829,9.252-14.979,9.252-24.892Q364.982,177.289,355.763,167.376Z" transform="translate(-4.851 -33.984)"/><path class="a" d="M420.663,143.054q18.173-18.5,46.259-18.5t46.259,18.5c12.115,12.116,18.063,27.095,18.063,44.717,0,17.843-5.948,32.822-18.063,44.938s-27.535,18.283-46.259,18.283-34.144-6.168-46.259-18.283S402.6,205.614,402.6,187.771C402.633,170.148,408.548,155.169,420.663,143.054Zm46.259,79.081a31.269,31.269,0,0,0,23.57-9.913,34.65,34.65,0,0,0,9.692-24.451,33.77,33.77,0,0,0-9.692-24.231,31.269,31.269,0,0,0-23.57-9.913,31.753,31.753,0,0,0-23.79,9.913,33.572,33.572,0,0,0-9.472,24.231,34.453,34.453,0,0,0,9.472,24.451A31.754,31.754,0,0,0,466.922,222.135Z" transform="translate(8.856 -29.928)"/></g></svg>