<svg xmlns="http://www.w3.org/2000/svg" width="562.973" height="231.003" viewBox="0 0 562.973 231.003"><defs><style>.a{fill:none;stroke:#7391ff;}</style></defs><g transform="translate(0.53 0.5)"><path class="a" d="M77.393,121.524H29V88.75H160.1v32.774H111.738v136.6H77.359Z" transform="translate(-29.03 -31.327)"/><path class="a" d="M77.393,71.414H29V38.64H160.1V71.414H111.738" transform="translate(-29.03 -38.64)"/><path class="a" d="M149,199.745V127.55h32.316v72.195c0,15.814,9.4,26.128,24.982,26.128s24.982-10.314,24.982-26.128V127.55h32.316v72.195c0,35.066-21.544,55.693-57.3,55.693C170.773,255.438,149,234.811,149,199.745Z" transform="translate(-11.516 -25.664)"/><path class="a" d="M367.357,84.55h32.316V258.734H368.044V243.379c-10.084,12.147-22.919,18.335-38.733,18.335-17.648,0-32.545-6.188-44.234-18.564-11.689-12.605-17.648-28.19-17.648-46.984,0-18.564,5.959-34.149,17.648-46.755,11.918-12.605,26.586-18.794,44.234-18.794,15.127,0,27.732,5.959,38.045,17.648Zm-8.022,86.175c-6.417-7.1-14.668-10.543-24.982-10.543s-18.564,3.438-25.211,10.543q-9.626,10.314-9.626,25.44c0,10.313,3.209,18.794,9.626,25.9,6.646,6.876,14.9,10.314,25.211,10.314s18.564-3.438,24.982-10.314c6.417-7.1,9.626-15.585,9.626-25.9Q368.927,181.039,359.335,170.725Z" transform="translate(5.769 -31.939)"/><path class="a" d="M421.394,143.8q18.908-19.252,48.13-19.252t48.13,19.252c12.605,12.606,18.793,28.19,18.793,46.526,0,18.564-6.188,34.149-18.793,46.755S489,256.1,469.524,256.1s-35.524-6.417-48.13-19.023S402.6,208.892,402.6,190.327C402.634,171.992,408.788,156.407,421.394,143.8Zm48.13,82.279a32.533,32.533,0,0,0,24.523-10.314,36.051,36.051,0,0,0,10.084-25.44,35.136,35.136,0,0,0-10.084-25.211A32.533,32.533,0,0,0,469.524,154.8a33.038,33.038,0,0,0-24.753,10.314,34.93,34.93,0,0,0-9.855,25.211,35.846,35.846,0,0,0,9.855,25.44A33.038,33.038,0,0,0,469.524,226.081Z" transform="translate(25.497 -26.102)"/></g></svg>