<svg xmlns="http://www.w3.org/2000/svg" width="56.94" height="46.264" viewBox="0 0 56.94 46.264"><defs><style>.a{fill:#39cbff;}</style></defs><path class="a" d="M56.94,53.477a24.338,24.338,0,0,1-6.726,1.843,11.608,11.608,0,0,0,5.135-6.452,23.328,23.328,0,0,1-7.4,2.826,11.672,11.672,0,0,0-20.192,7.982,12.02,12.02,0,0,0,.27,2.662A33.041,33.041,0,0,1,3.964,50.128a11.676,11.676,0,0,0,3.587,15.6,11.528,11.528,0,0,1-5.274-1.438v.128A11.727,11.727,0,0,0,11.63,75.89a11.651,11.651,0,0,1-3.061.384,10.322,10.322,0,0,1-2.21-.2,11.784,11.784,0,0,0,10.908,8.132A23.455,23.455,0,0,1,2.794,89.185,21.865,21.865,0,0,1,0,89.025a32.863,32.863,0,0,0,17.908,5.238c21.481,0,33.225-17.794,33.225-33.217,0-.516-.018-1.014-.043-1.509A23.287,23.287,0,0,0,56.94,53.477Z" transform="translate(0 -48)"/></svg>